<svg width="41" height="42" viewBox="0 0 41 42" fill="none" xmlns="http://www.w3.org/2000/svg">
<g clip-path="url(#clip0_483_6836)">
<path d="M7.43793 23.4362L14.6125 22.1346M7.43793 23.4362C8.73582 30.5678 15.5698 35.3002 22.7022 34.0062M7.43793 23.4362C6.14004 16.3046 10.8698 9.47435 18.0021 8.18039M14.6125 22.1346L26.0918 20.052M14.6125 22.1346C15.9104 29.2662 19.5322 34.5813 22.7022 34.0062M14.6125 22.1346C13.3146 15.003 14.8322 8.75549 18.0021 8.18039M26.0918 20.052L33.2663 18.7504M26.0918 20.052C24.7939 12.9204 21.172 7.6053 18.0021 8.18039M26.0918 20.052C27.3897 27.1836 25.8721 33.4311 22.7022 34.0062M33.2663 18.7504C31.9684 11.6188 25.1344 6.88643 18.0021 8.18039M33.2663 18.7504C34.5642 25.882 29.8345 32.7122 22.7022 34.0062" stroke="#11DBFF" stroke-width="3.65969" stroke-linecap="round" stroke-linejoin="round"/>
</g>
<defs>
<clipPath id="clip0_483_6836">
<rect width="35" height="35" fill="white" transform="matrix(0.983938 -0.178508 0.179051 0.98384 0 7)"/>
</clipPath>
</defs>
</svg>
