<svg width="34" height="34" viewBox="0 0 34 34" fill="none" xmlns="http://www.w3.org/2000/svg">
<g clip-path="url(#clip0_191_2445)">
<path d="M22.0845 18.4121L19.3206 21.2693C18.1999 22.4281 16.2279 22.4531 15.0828 21.2693L12.3189 18.4121L2.39209 28.6729C2.7616 28.849 3.16901 28.954 3.60213 28.954H30.8014C31.2345 28.954 31.6418 28.8491 32.0111 28.673L22.0845 18.4121Z" fill="black"/>
<path d="M30.8012 5.04688H3.602C3.16888 5.04688 2.76147 5.15193 2.39209 5.32797L12.9996 16.2932C13.0003 16.2939 13.0011 16.294 13.0018 16.2948C13.0026 16.2955 13.0027 16.2965 13.0027 16.2965L16.4518 19.8618C16.8181 20.2393 17.5852 20.2393 17.9516 19.8618L21.4 16.2971C21.4 16.2971 21.4008 16.2955 21.4015 16.2948C21.4015 16.2948 21.4031 16.2939 21.4038 16.2932L32.011 5.32791C31.6416 5.1518 31.2344 5.04688 30.8012 5.04688Z" fill="black"/>
<path d="M1.01013 6.7207C0.818965 7.11901 0.70166 7.56114 0.70166 8.03475V25.9644C0.70166 26.438 0.818836 26.8802 1.01007 27.2785L10.9541 16.9999L1.01013 6.7207Z" fill="black"/>
<path d="M33.3936 6.7207L23.4497 17.0001L33.3936 27.2788C33.5848 26.8804 33.7021 26.4383 33.7021 25.9646V8.03488C33.7021 7.56114 33.5848 7.11901 33.3936 6.7207Z" fill="black"/>
</g>
<defs>
<clipPath id="clip0_191_2445">
<rect width="33" height="34" fill="white" transform="translate(0.70166)"/>
</clipPath>
</defs>
</svg>
