<svg width="33" height="32" viewBox="0 0 33 32" fill="none" xmlns="http://www.w3.org/2000/svg">
<path d="M16.2017 32C25.0382 32 32.2017 24.8366 32.2017 16C32.2017 7.16344 25.0382 0 16.2017 0C7.3651 0 0.20166 7.16344 0.20166 16C0.20166 24.8366 7.3651 32 16.2017 32Z" fill="black"/>
<path fill-rule="evenodd" clip-rule="evenodd" d="M7.44404 15.8319C12.1083 13.7997 15.2187 12.46 16.7748 11.8127C21.2182 9.96461 22.1415 9.64355 22.7433 9.63292C22.8757 9.63061 23.1716 9.66342 23.3633 9.81899C23.6477 10.0497 23.6493 10.5506 23.6177 10.8821C23.3769 13.4121 22.335 19.5517 21.805 22.3853C21.5807 23.5843 21.139 23.9864 20.7115 24.0257C19.7824 24.1112 19.0768 23.4116 18.1769 22.8217C16.7687 21.8986 15.9732 21.324 14.6062 20.4232C13.0265 19.3822 14.0506 18.8101 14.9508 17.8751C15.1865 17.6304 19.2803 13.9067 19.3595 13.5689C19.3695 13.5266 19.3787 13.3691 19.2851 13.286C19.1915 13.2029 19.0535 13.2312 18.9538 13.2539C18.8126 13.2859 16.563 14.7729 12.205 17.7146C11.5664 18.1531 10.988 18.3667 10.4698 18.3555C9.89854 18.3432 8.79966 18.0326 7.98272 17.767C6.98072 17.4413 6.18435 17.269 6.25372 16.7159C6.28985 16.4277 6.6866 16.1331 7.44404 15.8319Z" fill="#11DBFF"/>
</svg>
