<svg width="31" height="30" viewBox="0 0 31 30" fill="none" xmlns="http://www.w3.org/2000/svg">
<g clip-path="url(#clip0_191_2464)">
<mask id="mask0_191_2464" style="mask-type:luminance" maskUnits="userSpaceOnUse" x="0" y="0" width="31" height="30">
<path d="M30.0531 0H0.350098V30H30.0531V0Z" fill="white"/>
</mask>
<g mask="url(#mask0_191_2464)">
<path fill-rule="evenodd" clip-rule="evenodd" d="M2.43805 2.10883C0.350098 4.21767 0.350098 7.61178 0.350098 14.4V15.6C0.350098 22.3882 0.350098 25.7823 2.43805 27.8912C4.52601 30 7.88651 30 14.6075 30H15.7956C22.5167 30 25.8772 30 27.9651 27.8912C30.0531 25.7823 30.0531 22.3882 30.0531 15.6V14.4C30.0531 7.61178 30.0531 4.21767 27.9651 2.10883C25.8772 0 22.5167 0 15.7956 0H14.6075C7.88651 0 4.52601 0 2.43805 2.10883ZM5.36253 9.12507C5.5234 16.9251 9.38476 21.6125 16.1546 21.6125H16.5383V17.15C19.0259 17.4 20.907 19.2376 21.6619 21.6125H25.1769C24.2115 18.0626 21.6743 16.1 20.0901 15.35C21.6743 14.4251 23.902 12.1751 24.4342 9.12507H21.241C20.548 11.6001 18.4937 13.85 16.5383 14.0625V9.12507H13.3451V17.775C11.3649 17.2751 8.86499 14.8501 8.7536 9.12507H5.36253Z" fill="black"/>
</g>
</g>
<defs>
<clipPath id="clip0_191_2464">
<rect width="30" height="30" fill="white" transform="translate(0.20166)"/>
</clipPath>
</defs>
</svg>
