<svg width="61" height="62" viewBox="0 0 61 62" fill="none" xmlns="http://www.w3.org/2000/svg">
<g clip-path="url(#clip0_25_176)">
<path d="M8.95809 13.1324C9.67416 10.2654 11.2747 7.66533 13.5425 5.7178C16.1408 3.48662 19.4555 2.25798 22.8763 2.25798C25.4427 2.25798 27.9011 2.91979 30.0708 4.18421C32.3686 2.08284 35.3814 0.902344 38.5472 0.902344C45.3375 0.902344 50.8874 6.31535 51.1089 13.0526C53.4564 13.7087 55.5819 15.0443 57.2067 16.9074C59.2025 19.1961 60.3018 22.127 60.3018 25.1602C60.3018 32.0905 54.6636 37.7287 47.7332 37.7287H12.6094C5.67905 37.7287 0.0408897 32.0905 0.0408897 25.1602C0.0408897 19.6036 3.72622 14.7222 8.95809 13.1324Z" fill="black"/>
<path d="M41.3525 41.2594V44.6196H47.6019C48.3726 41.9061 50.8712 39.9121 53.8284 39.9121C57.3978 39.9121 60.3018 42.816 60.3018 46.3854C60.3018 49.9548 57.3978 52.8588 53.8284 52.8588C50.8709 52.8588 48.3722 50.8644 47.6017 48.1505H39.5871C38.6126 48.1505 37.8216 47.3608 37.8216 46.3851V41.2594H41.3525Z" fill="black"/>
<path d="M28.4057 48.398V41.2598H31.9367V48.398C34.6504 49.1685 36.6445 51.6672 36.6445 54.6246C36.6445 58.194 33.7406 61.0979 30.1712 61.0979C26.6018 61.0979 23.6979 58.194 23.6979 54.6246C23.6979 51.6672 25.692 49.1685 28.4057 48.398Z" fill="black"/>
<path d="M6.51371 39.9121C9.47097 39.9121 11.9696 41.9061 12.7402 44.6196H18.9896V41.2594H22.5205V46.3851C22.5205 47.3608 21.7296 48.1505 20.7551 48.1505H12.7405C11.9699 50.8644 9.4712 52.8588 6.51371 52.8588C2.94432 52.8588 0.0403786 49.9548 0.0403786 46.3854C0.0403786 42.816 2.94432 39.9121 6.51371 39.9121Z" fill="black"/>
</g>
<defs>
<clipPath id="clip0_25_176">
<rect width="60.2609" height="60.2609" fill="white" transform="matrix(-1 0 0 1 60.3018 0.869141)"/>
</clipPath>
</defs>
</svg>
