<svg width="24" height="16" viewBox="0 0 24 16" fill="none" xmlns="http://www.w3.org/2000/svg">
<g clip-path="url(#clip0_176_28)">
<path d="M23.5862 15.9865H0.413813C0.185297 15.9865 0 15.7982 0 15.5661V0.433076C0 0.200933 0.185297 0.0126953 0.413813 0.0126953H23.5862C23.8148 0.0126953 24 0.200933 24 0.433076V15.5661C24 15.7983 23.8147 15.9865 23.5862 15.9865Z" fill="#F5F5F5"/>
<path d="M24 1.2415H0V0.433076C0 0.200933 0.185297 0.0126953 0.413813 0.0126953H23.5862C23.8148 0.0126953 24 0.200933 24 0.433076L24 1.2415Z" fill="#FF4B55"/>
<path d="M24 4.92773H0V6.1565H24V4.92773Z" fill="#FF4B55"/>
<path d="M24 2.46973H0V3.69849H24V2.46973Z" fill="#FF4B55"/>
<path d="M24 8.61358H0.413813C0.185297 8.61358 0 8.42534 0 8.19319V7.38477H24V8.61358Z" fill="#FF4B55"/>
<path d="M24 12.3008H0V13.5295H24V12.3008Z" fill="#FF4B55"/>
<path d="M23.5862 15.9866H0.413813C0.185297 15.9866 0 15.7983 0 15.5662V14.7578H24V15.5662C24 15.7984 23.8147 15.9866 23.5862 15.9866Z" fill="#FF4B55"/>
<path d="M24 9.84277H0V11.0715H24V9.84277Z" fill="#FF4B55"/>
<path d="M10.7586 0.0136719H0.413813C0.185297 0.0136719 0 0.201862 0 0.434005V8.19448C0 8.42662 0.185297 8.61486 0.413813 8.61486H10.7587C10.9872 8.61486 11.1725 8.42662 11.1725 8.19448V0.434005C11.1724 0.201862 10.9871 0.0136719 10.7586 0.0136719Z" fill="#41479B"/>
<path d="M1.16186 0.978273L1.25345 1.25732L1.543 1.25956C1.5805 1.25989 1.59602 1.30846 1.56588 1.33108L1.33295 1.50584L1.42033 1.78627C1.43167 1.82256 1.39094 1.85265 1.36042 1.83046L1.12488 1.65946L0.889329 1.83051C0.858814 1.85265 0.818173 1.82261 0.829423 1.78632L0.916798 1.50589L0.683876 1.33113C0.653736 1.30846 0.669251 1.25994 0.706751 1.25961L0.996298 1.25737L1.08789 0.978321C1.0997 0.94213 1.14995 0.94213 1.16186 0.978273Z" fill="#F5F5F5"/>
<path d="M1.16186 2.4382L1.25345 2.71725L1.543 2.71948C1.5805 2.71982 1.59602 2.76839 1.56588 2.79101L1.33295 2.96577L1.42033 3.2462C1.43167 3.28248 1.39094 3.31258 1.36042 3.29039L1.12488 3.11939L0.889329 3.29044C0.858814 3.31258 0.818173 3.28253 0.829423 3.24625L0.916798 2.96582L0.683876 2.79106C0.653736 2.76839 0.669251 2.71987 0.706751 2.71953L0.996298 2.71729L1.08789 2.43825C1.0997 2.4021 1.14995 2.4021 1.16186 2.4382Z" fill="#F5F5F5"/>
<path d="M1.16186 3.89816L1.25345 4.17721L1.543 4.17945C1.5805 4.17978 1.59602 4.22835 1.56588 4.25097L1.33295 4.42573L1.42033 4.70616C1.43167 4.74244 1.39094 4.77254 1.36042 4.75035L1.12488 4.57935L0.889329 4.7504C0.858814 4.77254 0.818173 4.74249 0.829423 4.70621L0.916798 4.42578L0.683876 4.25102C0.653736 4.22835 0.669251 4.17983 0.706751 4.17949L0.996298 4.17725L1.08789 3.89821C1.0997 3.86206 1.14995 3.86206 1.16186 3.89816Z" fill="#F5F5F5"/>
<path d="M1.16186 5.35718L1.25345 5.63623L1.543 5.63847C1.5805 5.6388 1.59602 5.68737 1.56588 5.70999L1.33295 5.88475L1.42033 6.16518C1.43167 6.20146 1.39094 6.23156 1.36042 6.20937L1.12488 6.03837L0.889329 6.20942C0.858814 6.23156 0.818173 6.20151 0.829423 6.16523L0.916798 5.8848L0.683876 5.71004C0.653736 5.68737 0.669251 5.63885 0.706751 5.63851L0.996298 5.63627L1.08789 5.35723C1.0997 5.32104 1.14995 5.32104 1.16186 5.35718Z" fill="#F5F5F5"/>
<path d="M1.16186 6.81718L1.25345 7.09622L1.543 7.09846C1.5805 7.09879 1.59602 7.14737 1.56588 7.16999L1.33295 7.34475L1.42033 7.62518C1.43167 7.66146 1.39094 7.69156 1.36042 7.66937L1.12488 7.49837L0.889329 7.66941C0.858814 7.69156 0.818173 7.66151 0.829423 7.62522L0.916798 7.34479L0.683876 7.17003C0.653736 7.14737 0.669251 7.09884 0.706751 7.09851L0.996298 7.09627L1.08789 6.81722C1.0997 6.78099 1.14995 6.78099 1.16186 6.81718Z" fill="#F5F5F5"/>
<path d="M2.2771 1.69406L2.36869 1.97311L2.65824 1.97535C2.69574 1.97568 2.71125 2.02425 2.68111 2.04687L2.44819 2.22163L2.53556 2.50206C2.54691 2.53835 2.50617 2.56844 2.47566 2.54625L2.24011 2.37521L2.00456 2.54625C1.97405 2.5684 1.93341 2.53835 1.94466 2.50206L2.03203 2.22163L1.79911 2.04687C1.76897 2.02421 1.78449 1.97568 1.82199 1.97535L2.11153 1.97311L2.20313 1.69406C2.21489 1.65797 2.26524 1.65797 2.2771 1.69406Z" fill="#F5F5F5"/>
<path d="M2.2771 3.15406L2.36869 3.43311L2.65824 3.43535C2.69574 3.43568 2.71125 3.48425 2.68111 3.50687L2.44819 3.68163L2.53556 3.96206C2.54691 3.99835 2.50617 4.02844 2.47566 4.00625L2.24011 3.8352L2.00456 4.00625C1.97405 4.02839 1.93341 3.99839 1.94466 3.96206L2.03203 3.68163L1.79911 3.50687C1.76897 3.4842 1.78449 3.43568 1.82199 3.43535L2.11153 3.43311L2.20313 3.15406C2.21489 3.11792 2.26524 3.11792 2.2771 3.15406Z" fill="#F5F5F5"/>
<path d="M2.2771 4.61304L2.36869 4.89209L2.65824 4.89433C2.69574 4.89466 2.71125 4.94323 2.68111 4.96585L2.44819 5.14062L2.53556 5.42104C2.54691 5.45733 2.50617 5.48743 2.47566 5.46523L2.24011 5.29419L2.00456 5.46523C1.97405 5.48738 1.93341 5.45733 1.94466 5.42104L2.03203 5.14062L1.79911 4.96585C1.76897 4.94319 1.78449 4.89466 1.82199 4.89433L2.11153 4.89209L2.20313 4.61304C2.21489 4.5769 2.26524 4.5769 2.2771 4.61304Z" fill="#F5F5F5"/>
<path d="M2.2771 6.07297L2.36869 6.35202L2.65824 6.35426C2.69574 6.35459 2.71125 6.40316 2.68111 6.42578L2.44819 6.60054L2.53556 6.88097C2.54691 6.91726 2.50617 6.94735 2.47566 6.92516L2.24011 6.75411L2.00456 6.92516C1.97405 6.9473 1.93341 6.91726 1.94466 6.88097L2.03203 6.60054L1.79911 6.42578C1.76897 6.40311 1.78449 6.35459 1.82199 6.35426L2.11153 6.35202L2.20313 6.07297C2.21489 6.03687 2.26524 6.03687 2.2771 6.07297Z" fill="#F5F5F5"/>
<path d="M3.39233 0.978279L3.48392 1.25733L3.77347 1.25956C3.81097 1.2599 3.82649 1.30847 3.79635 1.33109L3.56342 1.50585L3.6508 1.78628C3.66214 1.82256 3.62141 1.85266 3.59089 1.83047L3.35534 1.65942L3.1198 1.83047C3.08928 1.85261 3.04864 1.82256 3.05989 1.78628L3.14727 1.50585L2.91434 1.33109C2.8842 1.30842 2.89972 1.2599 2.93722 1.25956L3.22677 1.25733L3.31836 0.978279C3.33017 0.942136 3.38047 0.942136 3.39233 0.978279Z" fill="#F5F5F5"/>
<path d="M3.39233 2.4382L3.48392 2.71725L3.77347 2.71949C3.81097 2.71982 3.82649 2.76839 3.79635 2.79101L3.56342 2.96578L3.6508 3.2462C3.66214 3.28249 3.62141 3.31259 3.59089 3.29039L3.35534 3.11935L3.1198 3.29039C3.08928 3.31254 3.04864 3.28249 3.05989 3.2462L3.14727 2.96578L2.91434 2.79101C2.8842 2.76835 2.89972 2.71982 2.93722 2.71949L3.22677 2.71725L3.31836 2.4382C3.33017 2.40211 3.38047 2.40211 3.39233 2.4382Z" fill="#F5F5F5"/>
<path d="M3.39233 3.89817L3.48392 4.17721L3.77347 4.17945C3.81097 4.17978 3.82649 4.22836 3.79635 4.25098L3.56342 4.42574L3.6508 4.70617C3.66214 4.74245 3.62141 4.77255 3.59089 4.75036L3.35534 4.57931L3.1198 4.75036C3.08928 4.7725 3.04864 4.74245 3.05989 4.70617L3.14727 4.42574L2.91434 4.25098C2.8842 4.22831 2.89972 4.17978 2.93722 4.17945L3.22677 4.17721L3.31836 3.89817C3.33017 3.86207 3.38047 3.86207 3.39233 3.89817Z" fill="#F5F5F5"/>
<path d="M3.39233 5.35719L3.48392 5.63623L3.77347 5.63847C3.81097 5.6388 3.82649 5.68738 3.79635 5.70999L3.56342 5.88476L3.6508 6.16518C3.66214 6.20147 3.62141 6.23157 3.59089 6.20938L3.35534 6.03833L3.1198 6.20938C3.08928 6.23152 3.04864 6.20147 3.05989 6.16518L3.14727 5.88476L2.91434 5.70999C2.8842 5.68733 2.89972 5.6388 2.93722 5.63847L3.22677 5.63623L3.31836 5.35719C3.33017 5.32104 3.38047 5.32104 3.39233 5.35719Z" fill="#F5F5F5"/>
<path d="M3.39233 6.81718L3.48392 7.09623L3.77347 7.09847C3.81097 7.0988 3.82649 7.14737 3.79635 7.16999L3.56342 7.34475L3.6508 7.62518C3.66214 7.66147 3.62141 7.69156 3.59089 7.66937L3.35534 7.49832L3.1198 7.66937C3.08928 7.69152 3.04864 7.66147 3.05989 7.62518L3.14727 7.34475L2.91434 7.16999C2.8842 7.14732 2.89972 7.0988 2.93722 7.09847L3.22677 7.09623L3.31836 6.81718C3.33017 6.78099 3.38047 6.78099 3.39233 6.81718Z" fill="#F5F5F5"/>
<path d="M4.50756 1.69406L4.59916 1.97311L4.8887 1.97535C4.9262 1.97568 4.94172 2.02425 4.91158 2.04687L4.67866 2.22163L4.76603 2.50206C4.77738 2.53835 4.73664 2.56844 4.70613 2.54625L4.47058 2.37521L4.23503 2.54625C4.20452 2.5684 4.16388 2.53835 4.17513 2.50206L4.2625 2.22163L4.02958 2.04687C3.99944 2.02421 4.01495 1.97568 4.05245 1.97535L4.342 1.97311L4.4336 1.69406C4.44536 1.65797 4.4957 1.65797 4.50756 1.69406Z" fill="#F5F5F5"/>
<path d="M4.50756 3.15406L4.59916 3.43311L4.8887 3.43535C4.9262 3.43568 4.94172 3.48425 4.91158 3.50687L4.67866 3.68163L4.76603 3.96206C4.77738 3.99835 4.73664 4.02844 4.70613 4.00625L4.47058 3.8352L4.23503 4.00625C4.20452 4.02839 4.16388 3.99839 4.17513 3.96206L4.2625 3.68163L4.02958 3.50687C3.99944 3.4842 4.01495 3.43568 4.05245 3.43535L4.342 3.43311L4.4336 3.15406C4.44536 3.11792 4.4957 3.11792 4.50756 3.15406Z" fill="#F5F5F5"/>
<path d="M4.50756 4.61304L4.59916 4.89209L4.8887 4.89433C4.9262 4.89466 4.94172 4.94323 4.91158 4.96585L4.67866 5.14062L4.76603 5.42104C4.77738 5.45733 4.73664 5.48743 4.70613 5.46523L4.47058 5.29419L4.23503 5.46523C4.20452 5.48738 4.16388 5.45733 4.17513 5.42104L4.2625 5.14062L4.02958 4.96585C3.99944 4.94319 4.01495 4.89466 4.05245 4.89433L4.342 4.89209L4.4336 4.61304C4.44536 4.5769 4.4957 4.5769 4.50756 4.61304Z" fill="#F5F5F5"/>
<path d="M4.50756 6.07297L4.59916 6.35202L4.8887 6.35426C4.9262 6.35459 4.94172 6.40316 4.91158 6.42578L4.67866 6.60054L4.76603 6.88097C4.77738 6.91726 4.73664 6.94735 4.70613 6.92516L4.47058 6.75411L4.23503 6.92516C4.20452 6.9473 4.16388 6.91726 4.17513 6.88097L4.2625 6.60054L4.02958 6.42578C3.99944 6.40311 4.01495 6.35459 4.05245 6.35426L4.342 6.35202L4.4336 6.07297C4.44536 6.03687 4.4957 6.03687 4.50756 6.07297Z" fill="#F5F5F5"/>
<path d="M5.62284 0.978279L5.71444 1.25733L6.00399 1.25956C6.04149 1.2599 6.057 1.30847 6.02686 1.33109L5.79394 1.50585L5.88131 1.78628C5.89266 1.82256 5.85192 1.85266 5.82141 1.83047L5.58581 1.65942L5.35027 1.83047C5.31975 1.85261 5.27911 1.82256 5.29036 1.78628L5.37774 1.50585L5.14481 1.33109C5.11467 1.30842 5.13019 1.2599 5.16769 1.25956L5.45724 1.25733L5.54883 0.978279C5.56069 0.942136 5.61099 0.942136 5.62284 0.978279Z" fill="#F5F5F5"/>
<path d="M5.62284 2.4382L5.71444 2.71725L6.00399 2.71949C6.04149 2.71982 6.057 2.76839 6.02686 2.79101L5.79394 2.96578L5.88131 3.2462C5.89266 3.28249 5.85192 3.31259 5.82141 3.29039L5.58581 3.11935L5.35027 3.29039C5.31975 3.31254 5.27911 3.28249 5.29036 3.2462L5.37774 2.96578L5.14481 2.79101C5.11467 2.76835 5.13019 2.71982 5.16769 2.71949L5.45724 2.71725L5.54883 2.4382C5.56069 2.40211 5.61099 2.40211 5.62284 2.4382Z" fill="#F5F5F5"/>
<path d="M5.62284 3.89817L5.71444 4.17721L6.00399 4.17945C6.04149 4.17978 6.057 4.22836 6.02686 4.25098L5.79394 4.42574L5.88131 4.70617C5.89266 4.74245 5.85192 4.77255 5.82141 4.75036L5.58581 4.57931L5.35027 4.75036C5.31975 4.7725 5.27911 4.74245 5.29036 4.70617L5.37774 4.42574L5.14481 4.25098C5.11467 4.22831 5.13019 4.17978 5.16769 4.17945L5.45724 4.17721L5.54883 3.89817C5.56069 3.86207 5.61099 3.86207 5.62284 3.89817Z" fill="#F5F5F5"/>
<path d="M5.62284 5.35719L5.71444 5.63623L6.00399 5.63847C6.04149 5.6388 6.057 5.68738 6.02686 5.70999L5.79394 5.88476L5.88131 6.16518C5.89266 6.20147 5.85192 6.23157 5.82141 6.20938L5.58581 6.03833L5.35027 6.20938C5.31975 6.23152 5.27911 6.20147 5.29036 6.16518L5.37774 5.88476L5.14481 5.70999C5.11467 5.68733 5.13019 5.6388 5.16769 5.63847L5.45724 5.63623L5.54883 5.35719C5.56069 5.32104 5.61099 5.32104 5.62284 5.35719Z" fill="#F5F5F5"/>
<path d="M5.62284 6.81718L5.71444 7.09623L6.00399 7.09847C6.04149 7.0988 6.057 7.14737 6.02686 7.16999L5.79394 7.34475L5.88131 7.62518C5.89266 7.66147 5.85192 7.69156 5.82141 7.66937L5.58581 7.49832L5.35027 7.66937C5.31975 7.69152 5.27911 7.66147 5.29036 7.62518L5.37774 7.34475L5.14481 7.16999C5.11467 7.14732 5.13019 7.0988 5.16769 7.09847L5.45724 7.09623L5.54883 6.81718C5.56069 6.78099 5.61099 6.78099 5.62284 6.81718Z" fill="#F5F5F5"/>
<path d="M6.73803 1.69406L6.82963 1.97311L7.11917 1.97535C7.15667 1.97568 7.17219 2.02425 7.14205 2.04687L6.90913 2.22163L6.9965 2.50206C7.00784 2.53835 6.96711 2.56844 6.93659 2.54625L6.70105 2.37521L6.4655 2.54625C6.43499 2.5684 6.39434 2.53835 6.40559 2.50206L6.49297 2.22163L6.26005 2.04687C6.22991 2.02421 6.24542 1.97568 6.28292 1.97535L6.57247 1.97311L6.66406 1.69406C6.67592 1.65797 6.72617 1.65797 6.73803 1.69406Z" fill="#F5F5F5"/>
<path d="M6.73803 3.15406L6.82963 3.43311L7.11917 3.43535C7.15667 3.43568 7.17219 3.48425 7.14205 3.50687L6.90913 3.68163L6.9965 3.96206C7.00784 3.99835 6.96711 4.02844 6.93659 4.00625L6.70105 3.8352L6.4655 4.00625C6.43499 4.02839 6.39434 3.99839 6.40559 3.96206L6.49297 3.68163L6.26005 3.50687C6.22991 3.4842 6.24542 3.43568 6.28292 3.43535L6.57247 3.43311L6.66406 3.15406C6.67592 3.11792 6.72617 3.11792 6.73803 3.15406Z" fill="#F5F5F5"/>
<path d="M6.73803 4.61304L6.82963 4.89209L7.11917 4.89433C7.15667 4.89466 7.17219 4.94323 7.14205 4.96585L6.90913 5.14062L6.9965 5.42104C7.00784 5.45733 6.96711 5.48743 6.93659 5.46523L6.70105 5.29419L6.4655 5.46523C6.43499 5.48738 6.39434 5.45733 6.40559 5.42104L6.49297 5.14062L6.26005 4.96585C6.22991 4.94319 6.24542 4.89466 6.28292 4.89433L6.57247 4.89209L6.66406 4.61304C6.67592 4.5769 6.72617 4.5769 6.73803 4.61304Z" fill="#F5F5F5"/>
<path d="M6.73803 6.07297L6.82963 6.35202L7.11917 6.35426C7.15667 6.35459 7.17219 6.40316 7.14205 6.42578L6.90913 6.60054L6.9965 6.88097C7.00784 6.91726 6.96711 6.94735 6.93659 6.92516L6.70105 6.75411L6.4655 6.92516C6.43499 6.9473 6.39434 6.91726 6.40559 6.88097L6.49297 6.60054L6.26005 6.42578C6.22991 6.40311 6.24542 6.35459 6.28292 6.35426L6.57247 6.35202L6.66406 6.07297C6.67592 6.03687 6.72617 6.03687 6.73803 6.07297Z" fill="#F5F5F5"/>
<path d="M7.85327 0.978279L7.94486 1.25733L8.23441 1.25956C8.27191 1.2599 8.28742 1.30847 8.25728 1.33109L8.02436 1.50585L8.11174 1.78628C8.12308 1.82256 8.08235 1.85266 8.05183 1.83047L7.81628 1.65942L7.58074 1.83047C7.55022 1.85261 7.50958 1.82256 7.52083 1.78628L7.6082 1.50585L7.37528 1.33109C7.34514 1.30842 7.36066 1.2599 7.39816 1.25956L7.6877 1.25733L7.7793 0.978279C7.79106 0.942136 7.84141 0.942136 7.85327 0.978279Z" fill="#F5F5F5"/>
<path d="M7.85327 2.4382L7.94486 2.71725L8.23441 2.71949C8.27191 2.71982 8.28742 2.76839 8.25728 2.79101L8.02436 2.96578L8.11174 3.2462C8.12308 3.28249 8.08235 3.31259 8.05183 3.29039L7.81628 3.11935L7.58074 3.29039C7.55022 3.31254 7.50958 3.28249 7.52083 3.2462L7.6082 2.96578L7.37528 2.79101C7.34514 2.76835 7.36066 2.71982 7.39816 2.71949L7.6877 2.71725L7.7793 2.4382C7.79106 2.40211 7.84141 2.40211 7.85327 2.4382Z" fill="#F5F5F5"/>
<path d="M7.85327 3.89817L7.94486 4.17721L8.23441 4.17945C8.27191 4.17978 8.28742 4.22836 8.25728 4.25098L8.02436 4.42574L8.11174 4.70617C8.12308 4.74245 8.08235 4.77255 8.05183 4.75036L7.81628 4.57931L7.58074 4.75036C7.55022 4.7725 7.50958 4.74245 7.52083 4.70617L7.6082 4.42574L7.37528 4.25098C7.34514 4.22831 7.36066 4.17978 7.39816 4.17945L7.6877 4.17721L7.7793 3.89817C7.79106 3.86207 7.84141 3.86207 7.85327 3.89817Z" fill="#F5F5F5"/>
<path d="M7.85327 5.35719L7.94486 5.63623L8.23441 5.63847C8.27191 5.6388 8.28742 5.68738 8.25728 5.70999L8.02436 5.88476L8.11174 6.16518C8.12308 6.20147 8.08235 6.23157 8.05183 6.20938L7.81628 6.03833L7.58074 6.20938C7.55022 6.23152 7.50958 6.20147 7.52083 6.16518L7.6082 5.88476L7.37528 5.70999C7.34514 5.68733 7.36066 5.6388 7.39816 5.63847L7.6877 5.63623L7.7793 5.35719C7.79106 5.32104 7.84141 5.32104 7.85327 5.35719Z" fill="#F5F5F5"/>
<path d="M7.85327 6.81718L7.94486 7.09623L8.23441 7.09847C8.27191 7.0988 8.28742 7.14737 8.25728 7.16999L8.02436 7.34475L8.11174 7.62518C8.12308 7.66147 8.08235 7.69156 8.05183 7.66937L7.81628 7.49832L7.58074 7.66937C7.55022 7.69152 7.50958 7.66147 7.52083 7.62518L7.6082 7.34475L7.37528 7.16999C7.34514 7.14732 7.36066 7.0988 7.39816 7.09847L7.6877 7.09623L7.7793 6.81718C7.79106 6.78099 7.84141 6.78099 7.85327 6.81718Z" fill="#F5F5F5"/>
<path d="M8.96948 1.69406L9.06107 1.97311L9.35062 1.97535C9.38812 1.97568 9.40363 2.02425 9.37349 2.04687L9.14057 2.22163L9.22795 2.50206C9.23929 2.53835 9.19856 2.56844 9.16804 2.54625L8.93249 2.37521L8.69695 2.54625C8.66643 2.5684 8.62579 2.53835 8.63704 2.50206L8.72442 2.22163L8.49149 2.04687C8.46135 2.02421 8.47687 1.97568 8.51437 1.97535L8.80392 1.97311L8.89551 1.69406C8.90732 1.65797 8.95766 1.65797 8.96948 1.69406Z" fill="#F5F5F5"/>
<path d="M8.96948 3.15406L9.06107 3.43311L9.35062 3.43535C9.38812 3.43568 9.40363 3.48425 9.37349 3.50687L9.14057 3.68163L9.22795 3.96206C9.23929 3.99835 9.19856 4.02844 9.16804 4.00625L8.93249 3.8352L8.69695 4.00625C8.66643 4.02839 8.62579 3.99839 8.63704 3.96206L8.72442 3.68163L8.49149 3.50687C8.46135 3.4842 8.47687 3.43568 8.51437 3.43535L8.80392 3.43311L8.89551 3.15406C8.90732 3.11792 8.95766 3.11792 8.96948 3.15406Z" fill="#F5F5F5"/>
<path d="M8.96948 4.61304L9.06107 4.89209L9.35062 4.89433C9.38812 4.89466 9.40363 4.94323 9.37349 4.96585L9.14057 5.14062L9.22795 5.42104C9.23929 5.45733 9.19856 5.48743 9.16804 5.46523L8.93249 5.29419L8.69695 5.46523C8.66643 5.48738 8.62579 5.45733 8.63704 5.42104L8.72442 5.14062L8.49149 4.96585C8.46135 4.94319 8.47687 4.89466 8.51437 4.89433L8.80392 4.89209L8.89551 4.61304C8.90732 4.5769 8.95766 4.5769 8.96948 4.61304Z" fill="#F5F5F5"/>
<path d="M8.96948 6.07297L9.06107 6.35202L9.35062 6.35426C9.38812 6.35459 9.40363 6.40316 9.37349 6.42578L9.14057 6.60054L9.22795 6.88097C9.23929 6.91726 9.19856 6.94735 9.16804 6.92516L8.93249 6.75411L8.69695 6.92516C8.66643 6.9473 8.62579 6.91726 8.63704 6.88097L8.72442 6.60054L8.49149 6.42578C8.46135 6.40311 8.47687 6.35459 8.51437 6.35426L8.80392 6.35202L8.89551 6.07297C8.90732 6.03687 8.95766 6.03687 8.96948 6.07297Z" fill="#F5F5F5"/>
<path d="M10.0847 0.978279L10.1763 1.25733L10.4659 1.25956C10.5034 1.2599 10.5189 1.30847 10.4887 1.33109L10.2558 1.50585L10.3432 1.78628C10.3545 1.82256 10.3138 1.85266 10.2833 1.83047L10.0477 1.65942L9.81218 1.83047C9.78167 1.85261 9.74103 1.82256 9.75228 1.78628L9.83965 1.50585L9.60673 1.33109C9.57659 1.30842 9.5921 1.2599 9.6296 1.25956L9.91915 1.25733L10.0107 0.978279C10.0226 0.942136 10.0728 0.942136 10.0847 0.978279Z" fill="#F5F5F5"/>
<path d="M10.0847 2.4382L10.1763 2.71725L10.4659 2.71949C10.5034 2.71982 10.5189 2.76839 10.4887 2.79101L10.2558 2.96578L10.3432 3.2462C10.3545 3.28249 10.3138 3.31259 10.2833 3.29039L10.0477 3.11935L9.81218 3.29039C9.78167 3.31254 9.74103 3.28249 9.75228 3.2462L9.83965 2.96578L9.60673 2.79101C9.57659 2.76835 9.5921 2.71982 9.6296 2.71949L9.91915 2.71725L10.0107 2.4382C10.0226 2.40211 10.0728 2.40211 10.0847 2.4382Z" fill="#F5F5F5"/>
<path d="M10.0847 3.89817L10.1763 4.17721L10.4659 4.17945C10.5034 4.17978 10.5189 4.22836 10.4887 4.25098L10.2558 4.42574L10.3432 4.70617C10.3545 4.74245 10.3138 4.77255 10.2833 4.75036L10.0477 4.57931L9.81218 4.75036C9.78167 4.7725 9.74103 4.74245 9.75228 4.70617L9.83965 4.42574L9.60673 4.25098C9.57659 4.22831 9.5921 4.17978 9.6296 4.17945L9.91915 4.17721L10.0107 3.89817C10.0226 3.86207 10.0728 3.86207 10.0847 3.89817Z" fill="#F5F5F5"/>
<path d="M10.0847 5.35719L10.1763 5.63623L10.4659 5.63847C10.5034 5.6388 10.5189 5.68738 10.4887 5.70999L10.2558 5.88476L10.3432 6.16518C10.3545 6.20147 10.3138 6.23157 10.2833 6.20938L10.0477 6.03833L9.81218 6.20938C9.78167 6.23152 9.74103 6.20147 9.75228 6.16518L9.83965 5.88476L9.60673 5.70999C9.57659 5.68733 9.5921 5.6388 9.6296 5.63847L9.91915 5.63623L10.0107 5.35719C10.0226 5.32104 10.0728 5.32104 10.0847 5.35719Z" fill="#F5F5F5"/>
<path d="M10.0847 6.81718L10.1763 7.09623L10.4659 7.09847C10.5034 7.0988 10.5189 7.14737 10.4887 7.16999L10.2558 7.34475L10.3432 7.62518C10.3545 7.66147 10.3138 7.69156 10.2833 7.66937L10.0477 7.49832L9.81218 7.66937C9.78167 7.69152 9.74103 7.66147 9.75228 7.62518L9.83965 7.34475L9.60673 7.16999C9.57659 7.14732 9.5921 7.0988 9.6296 7.09847L9.91915 7.09623L10.0107 6.81718C10.0226 6.78099 10.0728 6.78099 10.0847 6.81718Z" fill="#F5F5F5"/>
</g>
<defs>
<clipPath id="clip0_176_28">
<rect width="24" height="16" fill="white"/>
</clipPath>
</defs>
</svg>
