<svg width="24" height="16" viewBox="0 0 24 16" fill="none" xmlns="http://www.w3.org/2000/svg">
<path d="M24 1.2415H0V0.433076C0 0.200933 0.185297 0.0126953 0.413813 0.0126953H23.5862C23.8148 0.0126953 24 0.200933 24 0.433076L24 1.2415Z" fill="#FF4B55"/>
<path d="M24 4.92773H0V6.1565H24V4.92773Z" fill="#FF4B55"/>
<path d="M24 2.46973H0V3.69849H24V2.46973Z" fill="#FF4B55"/>
<path d="M24 8.61358H0.413813C0.185297 8.61358 0 8.42534 0 8.19319V7.38477H24V8.61358Z" fill="#FF4B55"/>
<path d="M24 12.3008H0V13.5295H24V12.3008Z" fill="#FF4B55"/>
<path d="M23.5862 15.9866H0.413813C0.185297 15.9866 0 15.7983 0 15.5662V14.7578H24V15.5662C24 15.7984 23.8147 15.9866 23.5862 15.9866Z" fill="#FF4B55"/>
<path d="M24 9.84277H0V11.0715H24V9.84277Z" fill="#FF4B55"/>
</svg>
