<svg width="101" height="40" viewBox="0 0 101 40" fill="none" xmlns="http://www.w3.org/2000/svg">
<g clip-path="url(#clip0_192_8337)">
<path d="M6.0169 25.787L11.3336 24.8224M6.0169 25.787C6.97871 31.0719 12.0431 34.5788 17.3285 33.6199M6.0169 25.787C5.05509 20.502 8.56009 15.4404 13.8455 14.4815M11.3336 24.8224L19.8404 23.2791M11.3336 24.8224C12.2955 30.1073 14.9795 34.0461 17.3285 33.6199M11.3336 24.8224C10.3718 19.5375 11.4964 14.9077 13.8455 14.4815M19.8404 23.2791L25.1572 22.3145M19.8404 23.2791C18.8786 17.9941 16.1946 14.0554 13.8455 14.4815M19.8404 23.2791C20.8022 28.564 19.6776 33.1937 17.3285 33.6199M25.1572 22.3145C24.1954 17.0296 19.131 13.5226 13.8455 14.4815M25.1572 22.3145C26.119 27.5994 22.614 32.661 17.3285 33.6199" stroke="#11DBFF" stroke-width="2.40976" stroke-linecap="round" stroke-linejoin="round"/>
</g>
<path d="M29.2097 16.8374C28.7477 16.8374 28.3767 16.7324 28.0967 16.5224C27.8307 16.2984 27.6137 15.9624 27.4457 15.5144L23.2037 3.58644C23.0077 3.05444 23.0427 2.59944 23.3087 2.22144C23.5747 1.84344 24.0297 1.65444 24.6737 1.65444C25.1217 1.65444 25.4647 1.75944 25.7027 1.96944C25.9547 2.17944 26.1577 2.50844 26.3117 2.95644L29.3357 11.9654L32.5277 2.97744C32.6817 2.52944 32.8847 2.20044 33.1367 1.99044C33.3887 1.76644 33.7177 1.65444 34.1237 1.65444C34.5157 1.65444 34.8307 1.76644 35.0687 1.99044C35.3067 2.20044 35.5097 2.53644 35.6777 2.99844L38.7647 12.1334L41.9147 2.95644C42.0547 2.52244 42.2507 2.20044 42.5027 1.99044C42.7547 1.76644 43.0977 1.65444 43.5317 1.65444C44.0777 1.65444 44.4767 1.84344 44.7287 2.22144C44.9807 2.59944 45.0087 3.05444 44.8127 3.58644L40.5287 15.5354C40.3747 15.9694 40.1577 16.2984 39.8777 16.5224C39.6117 16.7324 39.2547 16.8374 38.8067 16.8374C38.3587 16.8374 38.0017 16.7324 37.7357 16.5224C37.4697 16.2984 37.2527 15.9624 37.0847 15.5144L34.0187 6.82044L30.9107 15.5354C30.7427 15.9694 30.5257 16.2984 30.2597 16.5224C30.0077 16.7324 29.6577 16.8374 29.2097 16.8374ZM49.6991 16.8794C48.4811 16.8794 47.4311 16.6624 46.5491 16.2284C45.6811 15.7804 45.0091 15.1574 44.5331 14.3594C44.0711 13.5474 43.8401 12.5954 43.8401 11.5034C43.8401 10.4394 44.0641 9.50844 44.5121 8.71044C44.9741 7.89844 45.5971 7.26844 46.3811 6.82044C47.1791 6.35844 48.0961 6.12744 49.1321 6.12744C50.6301 6.12744 51.8201 6.60344 52.7021 7.55544C53.5841 8.49344 54.0251 9.76744 54.0251 11.3774C54.0251 11.9094 53.6961 12.1754 53.0381 12.1754H46.8641C46.9761 12.9874 47.2701 13.5824 47.7461 13.9604C48.2361 14.3244 48.9081 14.5064 49.7621 14.5064C50.0981 14.5064 50.4761 14.4714 50.8961 14.4014C51.3301 14.3174 51.7431 14.1774 52.1351 13.9814C52.5411 13.7854 52.8841 13.7504 53.1641 13.8764C53.4441 13.9884 53.6331 14.1844 53.7311 14.4644C53.8431 14.7444 53.8431 15.0384 53.7311 15.3464C53.6331 15.6404 53.4021 15.8854 53.0381 16.0814C52.5481 16.3474 52.0021 16.5434 51.4001 16.6694C50.8121 16.8094 50.2451 16.8794 49.6991 16.8794ZM49.2581 8.22744C48.5861 8.22744 48.0401 8.43044 47.6201 8.83644C47.2141 9.24244 46.9621 9.80944 46.8641 10.5374H51.4001C51.3161 8.99744 50.6021 8.22744 49.2581 8.22744ZM58.3265 16.8794C55.8485 16.8794 54.6095 15.5004 54.6095 12.7424V3.27144C54.6095 2.19344 55.1415 1.65444 56.2055 1.65444C57.2555 1.65444 57.7805 2.19344 57.7805 3.27144V12.6164C57.7805 13.1904 57.8995 13.6174 58.1375 13.8974C58.3895 14.1634 58.7185 14.2964 59.1245 14.2964C59.2365 14.2964 59.3415 14.2894 59.4395 14.2754C59.5515 14.2614 59.6565 14.2544 59.7545 14.2544C59.9785 14.2404 60.1325 14.3104 60.2165 14.4644C60.3145 14.6184 60.3635 14.9334 60.3635 15.4094C60.3635 16.2214 60.0205 16.6834 59.3345 16.7954C59.1945 16.8094 59.0335 16.8234 58.8515 16.8374C58.6695 16.8654 58.4945 16.8794 58.3265 16.8794ZM64.2976 16.8374C63.4436 16.8374 62.8486 16.4104 62.5126 15.5564L59.5516 8.22744C59.3276 7.65344 59.3276 7.17044 59.5516 6.77844C59.7896 6.37244 60.2306 6.16944 60.8746 6.16944C61.2386 6.16944 61.5326 6.26044 61.7566 6.44244C61.9946 6.61044 62.2046 6.93944 62.3866 7.42944L64.4446 12.9524L66.6076 7.15644C66.8456 6.49844 67.2936 6.16944 67.9516 6.16944C68.6096 6.16944 69.0646 6.49844 69.3166 7.15644L71.4586 13.0364L73.5586 7.34544C73.7266 6.89744 73.9366 6.58944 74.1886 6.42144C74.4546 6.25344 74.7486 6.16944 75.0706 6.16944C75.6726 6.16944 76.0646 6.37944 76.2466 6.79944C76.4286 7.21944 76.4076 7.69544 76.1836 8.22744L73.2436 15.5564C72.9076 16.4104 72.3126 16.8374 71.4586 16.8374C70.6046 16.8374 70.0096 16.4104 69.6736 15.5564L67.8466 10.7894L66.0616 15.5354C65.7396 16.4034 65.1516 16.8374 64.2976 16.8374ZM78.4794 4.44744C77.8914 4.44744 77.4364 4.31444 77.1144 4.04844C76.8064 3.76844 76.6524 3.37644 76.6524 2.87244C76.6524 2.35444 76.8064 1.96244 77.1144 1.69644C77.4364 1.41644 77.8914 1.27644 78.4794 1.27644C79.6834 1.27644 80.2854 1.80844 80.2854 2.87244C80.2854 3.92244 79.6834 4.44744 78.4794 4.44744ZM78.4794 16.8164C77.9614 16.8164 77.5624 16.6694 77.2824 16.3754C77.0164 16.0674 76.8834 15.6404 76.8834 15.0944V7.91244C76.8834 6.75044 77.4154 6.16944 78.4794 6.16944C78.9834 6.16944 79.3684 6.32344 79.6344 6.63144C79.9144 6.92544 80.0544 7.35244 80.0544 7.91244V15.0944C80.0544 15.6404 79.9214 16.0674 79.6554 16.3754C79.3894 16.6694 78.9974 16.8164 78.4794 16.8164ZM85.1906 16.8794C84.5746 16.8794 83.9376 16.8234 83.2796 16.7114C82.6356 16.5994 82.0476 16.4104 81.5156 16.1444C81.1656 15.9624 80.9346 15.7314 80.8226 15.4514C80.7246 15.1714 80.7246 14.8984 80.8226 14.6324C80.9206 14.3664 81.0956 14.1704 81.3476 14.0444C81.5996 13.9044 81.8936 13.9044 82.2296 14.0444C82.8036 14.2824 83.3286 14.4504 83.8046 14.5484C84.2946 14.6464 84.7636 14.6954 85.2116 14.6954C85.7996 14.6954 86.2336 14.6044 86.5136 14.4224C86.7936 14.2264 86.9336 13.9744 86.9336 13.6664C86.9336 13.1764 86.5766 12.8684 85.8626 12.7424L83.6576 12.3434C82.7756 12.1894 82.1036 11.8744 81.6416 11.3984C81.1796 10.9224 80.9486 10.2994 80.9486 9.52944C80.9486 8.82944 81.1446 8.22744 81.5366 7.72344C81.9286 7.21944 82.4676 6.82744 83.1536 6.54744C83.8396 6.26744 84.6306 6.12744 85.5266 6.12744C86.7586 6.12744 87.8506 6.36544 88.8026 6.84144C89.1246 6.99544 89.3206 7.21244 89.3906 7.49244C89.4746 7.77244 89.4606 8.04544 89.3486 8.31144C89.2366 8.57744 89.0546 8.78044 88.8026 8.92044C88.5506 9.04644 88.2496 9.03244 87.8996 8.87844C87.4376 8.66844 87.0176 8.52144 86.6396 8.43744C86.2616 8.33944 85.9046 8.29044 85.5686 8.29044C84.9386 8.29044 84.4836 8.39544 84.2036 8.60544C83.9236 8.80144 83.7836 9.05344 83.7836 9.36144C83.7836 9.85144 84.1126 10.1594 84.7706 10.2854L86.9756 10.6844C87.8856 10.8384 88.5786 11.1464 89.0546 11.6084C89.5306 12.0564 89.7686 12.6724 89.7686 13.4564C89.7686 14.5344 89.3486 15.3744 88.5086 15.9764C87.6686 16.5784 86.5626 16.8794 85.1906 16.8794ZM95.6735 16.8794C94.4555 16.8794 93.4055 16.6624 92.5235 16.2284C91.6555 15.7804 90.9835 15.1574 90.5075 14.3594C90.0455 13.5474 89.8145 12.5954 89.8145 11.5034C89.8145 10.4394 90.0385 9.50844 90.4865 8.71044C90.9485 7.89844 91.5715 7.26844 92.3555 6.82044C93.1535 6.35844 94.0705 6.12744 95.1065 6.12744C96.6045 6.12744 97.7945 6.60344 98.6765 7.55544C99.5585 8.49344 99.9995 9.76744 99.9995 11.3774C99.9995 11.9094 99.6705 12.1754 99.0125 12.1754H92.8385C92.9505 12.9874 93.2445 13.5824 93.7205 13.9604C94.2105 14.3244 94.8825 14.5064 95.7365 14.5064C96.0725 14.5064 96.4505 14.4714 96.8705 14.4014C97.3045 14.3174 97.7175 14.1774 98.1095 13.9814C98.5155 13.7854 98.8585 13.7504 99.1385 13.8764C99.4185 13.9884 99.6075 14.1844 99.7055 14.4644C99.8175 14.7444 99.8175 15.0384 99.7055 15.3464C99.6075 15.6404 99.3765 15.8854 99.0125 16.0814C98.5225 16.3474 97.9765 16.5434 97.3745 16.6694C96.7865 16.8094 96.2195 16.8794 95.6735 16.8794ZM95.2325 8.22744C94.5605 8.22744 94.0145 8.43044 93.5945 8.83644C93.1885 9.24244 92.9365 9.80944 92.8385 10.5374H97.3745C97.2905 8.99744 96.5765 8.22744 95.2325 8.22744ZM38.2424 34.8794C36.5764 34.8794 35.1624 34.5644 34.0004 33.9344C32.8524 33.3044 31.9774 32.4224 31.3754 31.2884C30.7734 30.1544 30.4724 28.8244 30.4724 27.2984C30.4724 25.7304 30.7804 24.3724 31.3964 23.2244C32.0264 22.0764 32.9294 21.1874 34.1054 20.5574C35.2814 19.9274 36.6954 19.6124 38.3474 19.6124C39.1034 19.6124 39.8594 19.6964 40.6154 19.8644C41.3714 20.0324 42.0994 20.3124 42.7994 20.7044C43.1774 20.9144 43.4014 21.1944 43.4714 21.5444C43.5554 21.8944 43.5204 22.2374 43.3664 22.5734C43.2124 22.8954 42.9744 23.1334 42.6524 23.2874C42.3444 23.4274 41.9734 23.3924 41.5394 23.1824C40.6014 22.6924 39.5444 22.4474 38.3684 22.4474C36.8704 22.4474 35.7434 22.8674 34.9874 23.7074C34.2454 24.5334 33.8744 25.7304 33.8744 27.2984C33.8744 28.8804 34.2524 30.0774 35.0084 30.8894C35.7784 31.7014 36.9124 32.1074 38.4104 32.1074C39.2084 32.1074 40.0484 31.9814 40.9304 31.7294V28.8314H39.0404C38.1724 28.8314 37.7384 28.4394 37.7384 27.6554C37.7384 26.8714 38.1724 26.4794 39.0404 26.4794H42.3374C43.1914 26.4794 43.6184 26.9134 43.6184 27.7814V32.6534C43.6184 33.0174 43.5414 33.3254 43.3874 33.5774C43.2474 33.8294 43.0164 34.0114 42.6944 34.1234C42.0644 34.3474 41.3574 34.5294 40.5734 34.6694C39.7894 34.8094 39.0124 34.8794 38.2424 34.8794ZM48.4523 34.8794C47.6823 34.8794 47.0033 34.7324 46.4153 34.4384C45.8273 34.1444 45.3583 33.7454 45.0083 33.2414C44.6723 32.7374 44.5043 32.1704 44.5043 31.5404C44.5043 30.7984 44.7003 30.2034 45.0923 29.7554C45.4843 29.3074 46.1213 28.9924 47.0033 28.8104C47.8853 28.6144 49.0543 28.5164 50.5103 28.5164H51.2663V28.1594C51.2663 27.5434 51.1263 27.1094 50.8463 26.8574C50.5663 26.5914 50.0903 26.4584 49.4183 26.4584C49.0403 26.4584 48.6273 26.5074 48.1793 26.6054C47.7313 26.6894 47.2483 26.8364 46.7303 27.0464C46.3383 27.2144 46.0093 27.2284 45.7433 27.0884C45.4773 26.9344 45.3023 26.7104 45.2183 26.4164C45.1343 26.1084 45.1553 25.8004 45.2813 25.4924C45.4213 25.1844 45.6873 24.9604 46.0793 24.8204C46.7373 24.5684 47.3533 24.3934 47.9273 24.2954C48.5153 24.1834 49.0543 24.1274 49.5443 24.1274C51.1403 24.1274 52.3303 24.4914 53.1143 25.2194C53.8983 25.9334 54.2903 27.0464 54.2903 28.5584V33.2204C54.2903 34.2984 53.8003 34.8374 52.8203 34.8374C51.8263 34.8374 51.3293 34.2984 51.3293 33.2204V33.0944C51.1193 33.6404 50.7623 34.0744 50.2583 34.3964C49.7683 34.7184 49.1663 34.8794 48.4523 34.8794ZM49.1663 32.7584C49.7543 32.7584 50.2513 32.5554 50.6573 32.1494C51.0633 31.7434 51.2663 31.2184 51.2663 30.5744V30.1544H50.5313C49.4533 30.1544 48.6903 30.2524 48.2423 30.4484C47.7943 30.6304 47.5703 30.9524 47.5703 31.4144C47.5703 31.8064 47.7033 32.1284 47.9693 32.3804C48.2493 32.6324 48.6483 32.7584 49.1663 32.7584ZM57.0338 34.8374C55.9698 34.8374 55.4378 34.2984 55.4378 33.2204V25.7654C55.4378 24.7014 55.9558 24.1694 56.9918 24.1694C58.0278 24.1694 58.5458 24.7014 58.5458 25.7654V25.8284C58.8538 25.2964 59.2738 24.8834 59.8058 24.5894C60.3518 24.2814 60.9818 24.1274 61.6958 24.1274C62.4238 24.1274 63.0398 24.2884 63.5438 24.6104C64.0618 24.9324 64.4538 25.4224 64.7198 26.0804C65.0418 25.4644 65.5038 24.9884 66.1058 24.6524C66.7218 24.3024 67.4008 24.1274 68.1428 24.1274C69.3188 24.1274 70.1938 24.4844 70.7678 25.1984C71.3418 25.8984 71.6288 26.9834 71.6288 28.4534V33.2204C71.6288 33.7384 71.4888 34.1374 71.2088 34.4174C70.9428 34.6974 70.5578 34.8374 70.0538 34.8374C68.9898 34.8374 68.4578 34.2984 68.4578 33.2204V28.5584C68.4578 27.8724 68.3458 27.3754 68.1218 27.0674C67.9118 26.7454 67.5478 26.5844 67.0298 26.5844C66.4278 26.5844 65.9588 26.7944 65.6228 27.2144C65.2868 27.6344 65.1188 28.2294 65.1188 28.9994V33.2204C65.1188 34.2984 64.5938 34.8374 63.5438 34.8374C63.0398 34.8374 62.6478 34.6974 62.3678 34.4174C62.0878 34.1374 61.9478 33.7384 61.9478 33.2204V28.5584C61.9478 27.8724 61.8358 27.3754 61.6118 27.0674C61.3878 26.7454 61.0238 26.5844 60.5198 26.5844C59.9178 26.5844 59.4488 26.7944 59.1128 27.2144C58.7768 27.6344 58.6088 28.2294 58.6088 28.9994V33.2204C58.6088 34.2984 58.0838 34.8374 57.0338 34.8374ZM78.1529 34.8794C76.9349 34.8794 75.8849 34.6624 75.0029 34.2284C74.1349 33.7804 73.4629 33.1574 72.9869 32.3594C72.5249 31.5474 72.2939 30.5954 72.2939 29.5034C72.2939 28.4394 72.5179 27.5084 72.9659 26.7104C73.4279 25.8984 74.0509 25.2684 74.8349 24.8204C75.6329 24.3584 76.5499 24.1274 77.5859 24.1274C79.0839 24.1274 80.2739 24.6034 81.1559 25.5554C82.0379 26.4934 82.4789 27.7674 82.4789 29.3774C82.4789 29.9094 82.1499 30.1754 81.4919 30.1754H75.3179C75.4299 30.9874 75.7239 31.5824 76.1999 31.9604C76.6899 32.3244 77.3619 32.5064 78.2159 32.5064C78.5519 32.5064 78.9299 32.4714 79.3499 32.4014C79.7839 32.3174 80.1969 32.1774 80.5889 31.9814C80.9949 31.7854 81.3379 31.7504 81.6179 31.8764C81.8979 31.9884 82.0869 32.1844 82.1849 32.4644C82.2969 32.7444 82.2969 33.0384 82.1849 33.3464C82.0869 33.6404 81.8559 33.8854 81.4919 34.0814C81.0019 34.3474 80.4559 34.5434 79.8539 34.6694C79.2659 34.8094 78.6989 34.8794 78.1529 34.8794ZM77.7119 26.2274C77.0399 26.2274 76.4939 26.4304 76.0739 26.8364C75.6679 27.2424 75.4159 27.8094 75.3179 28.5374H79.8539C79.7699 26.9974 79.0559 26.2274 77.7119 26.2274ZM87.0113 34.8794C86.3953 34.8794 85.7583 34.8234 85.1003 34.7114C84.4563 34.5994 83.8683 34.4104 83.3363 34.1444C82.9863 33.9624 82.7553 33.7314 82.6433 33.4514C82.5453 33.1714 82.5453 32.8984 82.6433 32.6324C82.7413 32.3664 82.9163 32.1704 83.1683 32.0444C83.4203 31.9044 83.7143 31.9044 84.0503 32.0444C84.6243 32.2824 85.1493 32.4504 85.6253 32.5484C86.1153 32.6464 86.5843 32.6954 87.0323 32.6954C87.6203 32.6954 88.0543 32.6044 88.3343 32.4224C88.6143 32.2264 88.7543 31.9744 88.7543 31.6664C88.7543 31.1764 88.3973 30.8684 87.6833 30.7424L85.4783 30.3434C84.5963 30.1894 83.9243 29.8744 83.4623 29.3984C83.0003 28.9224 82.7693 28.2994 82.7693 27.5294C82.7693 26.8294 82.9653 26.2274 83.3573 25.7234C83.7493 25.2194 84.2883 24.8274 84.9743 24.5474C85.6603 24.2674 86.4513 24.1274 87.3473 24.1274C88.5793 24.1274 89.6713 24.3654 90.6233 24.8414C90.9453 24.9954 91.1413 25.2124 91.2113 25.4924C91.2953 25.7724 91.2813 26.0454 91.1693 26.3114C91.0573 26.5774 90.8753 26.7804 90.6233 26.9204C90.3713 27.0464 90.0703 27.0324 89.7203 26.8784C89.2583 26.6684 88.8383 26.5214 88.4603 26.4374C88.0823 26.3394 87.7253 26.2904 87.3893 26.2904C86.7593 26.2904 86.3043 26.3954 86.0243 26.6054C85.7443 26.8014 85.6043 27.0534 85.6043 27.3614C85.6043 27.8514 85.9333 28.1594 86.5913 28.2854L88.7963 28.6844C89.7063 28.8384 90.3993 29.1464 90.8753 29.6084C91.3513 30.0564 91.5893 30.6724 91.5893 31.4564C91.5893 32.5344 91.1693 33.3744 90.3293 33.9764C89.4893 34.5784 88.3833 34.8794 87.0113 34.8794Z" fill="#11DBFF"/>
<defs>
<clipPath id="clip0_192_8337">
<rect width="25.937" height="25.937" fill="white" transform="matrix(0.983938 -0.178508 0.179051 0.98384 0.504883 13.6064)"/>
</clipPath>
</defs>
</svg>
