<svg width="101" height="39" viewBox="0 0 101 39" fill="none" xmlns="http://www.w3.org/2000/svg">
<g clip-path="url(#clip0_148_510)">
<path d="M6.0169 25.1385L11.3336 24.1739M6.0169 25.1385C6.97871 30.4234 12.0431 33.9304 17.3285 32.9715M6.0169 25.1385C5.05509 19.8536 8.56009 14.792 13.8455 13.8331M11.3336 24.1739L19.8404 22.6306M11.3336 24.1739C12.2955 29.4589 14.9795 33.3976 17.3285 32.9715M11.3336 24.1739C10.3718 18.889 11.4964 14.2593 13.8455 13.8331M19.8404 22.6306L25.1572 21.666M19.8404 22.6306C18.8786 17.3457 16.1946 13.4069 13.8455 13.8331M19.8404 22.6306C20.8022 27.9155 19.6776 32.5453 17.3285 32.9715M25.1572 21.666C24.1954 16.3811 19.131 12.8742 13.8455 13.8331M25.1572 21.666C26.119 26.951 22.614 32.0126 17.3285 32.9715" stroke="#11DBFF" stroke-width="2.40976" stroke-linecap="round" stroke-linejoin="round"/>
</g>
<path d="M29.2097 16.189C28.7477 16.189 28.3767 16.084 28.0967 15.874C27.8307 15.65 27.6137 15.314 27.4457 14.866L23.2037 2.938C23.0077 2.406 23.0427 1.951 23.3087 1.573C23.5747 1.195 24.0297 1.006 24.6737 1.006C25.1217 1.006 25.4647 1.111 25.7027 1.321C25.9547 1.531 26.1577 1.86 26.3117 2.308L29.3357 11.317L32.5277 2.329C32.6817 1.881 32.8847 1.552 33.1367 1.342C33.3887 1.118 33.7177 1.006 34.1237 1.006C34.5157 1.006 34.8307 1.118 35.0687 1.342C35.3067 1.552 35.5097 1.888 35.6777 2.35L38.7647 11.485L41.9147 2.308C42.0547 1.874 42.2507 1.552 42.5027 1.342C42.7547 1.118 43.0977 1.006 43.5317 1.006C44.0777 1.006 44.4767 1.195 44.7287 1.573C44.9807 1.951 45.0087 2.406 44.8127 2.938L40.5287 14.887C40.3747 15.321 40.1577 15.65 39.8777 15.874C39.6117 16.084 39.2547 16.189 38.8067 16.189C38.3587 16.189 38.0017 16.084 37.7357 15.874C37.4697 15.65 37.2527 15.314 37.0847 14.866L34.0187 6.172L30.9107 14.887C30.7427 15.321 30.5257 15.65 30.2597 15.874C30.0077 16.084 29.6577 16.189 29.2097 16.189ZM49.6991 16.231C48.4811 16.231 47.4311 16.014 46.5491 15.58C45.6811 15.132 45.0091 14.509 44.5331 13.711C44.0711 12.899 43.8401 11.947 43.8401 10.855C43.8401 9.791 44.0641 8.86 44.5121 8.062C44.9741 7.25 45.5971 6.62 46.3811 6.172C47.1791 5.71 48.0961 5.479 49.1321 5.479C50.6301 5.479 51.8201 5.955 52.7021 6.907C53.5841 7.845 54.0251 9.119 54.0251 10.729C54.0251 11.261 53.6961 11.527 53.0381 11.527H46.8641C46.9761 12.339 47.2701 12.934 47.7461 13.312C48.2361 13.676 48.9081 13.858 49.7621 13.858C50.0981 13.858 50.4761 13.823 50.8961 13.753C51.3301 13.669 51.7431 13.529 52.1351 13.333C52.5411 13.137 52.8841 13.102 53.1641 13.228C53.4441 13.34 53.6331 13.536 53.7311 13.816C53.8431 14.096 53.8431 14.39 53.7311 14.698C53.6331 14.992 53.4021 15.237 53.0381 15.433C52.5481 15.699 52.0021 15.895 51.4001 16.021C50.8121 16.161 50.2451 16.231 49.6991 16.231ZM49.2581 7.579C48.5861 7.579 48.0401 7.782 47.6201 8.188C47.2141 8.594 46.9621 9.161 46.8641 9.889H51.4001C51.3161 8.349 50.6021 7.579 49.2581 7.579ZM58.3265 16.231C55.8485 16.231 54.6095 14.852 54.6095 12.094V2.623C54.6095 1.545 55.1415 1.006 56.2055 1.006C57.2555 1.006 57.7805 1.545 57.7805 2.623V11.968C57.7805 12.542 57.8995 12.969 58.1375 13.249C58.3895 13.515 58.7185 13.648 59.1245 13.648C59.2365 13.648 59.3415 13.641 59.4395 13.627C59.5515 13.613 59.6565 13.606 59.7545 13.606C59.9785 13.592 60.1325 13.662 60.2165 13.816C60.3145 13.97 60.3635 14.285 60.3635 14.761C60.3635 15.573 60.0205 16.035 59.3345 16.147C59.1945 16.161 59.0335 16.175 58.8515 16.189C58.6695 16.217 58.4945 16.231 58.3265 16.231ZM64.2976 16.189C63.4436 16.189 62.8486 15.762 62.5126 14.908L59.5516 7.579C59.3276 7.005 59.3276 6.522 59.5516 6.13C59.7896 5.724 60.2306 5.521 60.8746 5.521C61.2386 5.521 61.5326 5.612 61.7566 5.794C61.9946 5.962 62.2046 6.291 62.3866 6.781L64.4446 12.304L66.6076 6.508C66.8456 5.85 67.2936 5.521 67.9516 5.521C68.6096 5.521 69.0646 5.85 69.3166 6.508L71.4586 12.388L73.5586 6.697C73.7266 6.249 73.9366 5.941 74.1886 5.773C74.4546 5.605 74.7486 5.521 75.0706 5.521C75.6726 5.521 76.0646 5.731 76.2466 6.151C76.4286 6.571 76.4076 7.047 76.1836 7.579L73.2436 14.908C72.9076 15.762 72.3126 16.189 71.4586 16.189C70.6046 16.189 70.0096 15.762 69.6736 14.908L67.8466 10.141L66.0616 14.887C65.7396 15.755 65.1516 16.189 64.2976 16.189ZM78.4794 3.799C77.8914 3.799 77.4364 3.666 77.1144 3.4C76.8064 3.12 76.6524 2.728 76.6524 2.224C76.6524 1.706 76.8064 1.314 77.1144 1.048C77.4364 0.767999 77.8914 0.627999 78.4794 0.627999C79.6834 0.627999 80.2854 1.16 80.2854 2.224C80.2854 3.274 79.6834 3.799 78.4794 3.799ZM78.4794 16.168C77.9614 16.168 77.5624 16.021 77.2824 15.727C77.0164 15.419 76.8834 14.992 76.8834 14.446V7.264C76.8834 6.102 77.4154 5.521 78.4794 5.521C78.9834 5.521 79.3684 5.675 79.6344 5.983C79.9144 6.277 80.0544 6.704 80.0544 7.264V14.446C80.0544 14.992 79.9214 15.419 79.6554 15.727C79.3894 16.021 78.9974 16.168 78.4794 16.168ZM85.1906 16.231C84.5746 16.231 83.9376 16.175 83.2796 16.063C82.6356 15.951 82.0476 15.762 81.5156 15.496C81.1656 15.314 80.9346 15.083 80.8226 14.803C80.7246 14.523 80.7246 14.25 80.8226 13.984C80.9206 13.718 81.0956 13.522 81.3476 13.396C81.5996 13.256 81.8936 13.256 82.2296 13.396C82.8036 13.634 83.3286 13.802 83.8046 13.9C84.2946 13.998 84.7636 14.047 85.2116 14.047C85.7996 14.047 86.2336 13.956 86.5136 13.774C86.7936 13.578 86.9336 13.326 86.9336 13.018C86.9336 12.528 86.5766 12.22 85.8626 12.094L83.6576 11.695C82.7756 11.541 82.1036 11.226 81.6416 10.75C81.1796 10.274 80.9486 9.651 80.9486 8.881C80.9486 8.181 81.1446 7.579 81.5366 7.075C81.9286 6.571 82.4676 6.179 83.1536 5.899C83.8396 5.619 84.6306 5.479 85.5266 5.479C86.7586 5.479 87.8506 5.717 88.8026 6.193C89.1246 6.347 89.3206 6.564 89.3906 6.844C89.4746 7.124 89.4606 7.397 89.3486 7.663C89.2366 7.929 89.0546 8.132 88.8026 8.272C88.5506 8.398 88.2496 8.384 87.8996 8.23C87.4376 8.02 87.0176 7.873 86.6396 7.789C86.2616 7.691 85.9046 7.642 85.5686 7.642C84.9386 7.642 84.4836 7.747 84.2036 7.957C83.9236 8.153 83.7836 8.405 83.7836 8.713C83.7836 9.203 84.1126 9.511 84.7706 9.637L86.9756 10.036C87.8856 10.19 88.5786 10.498 89.0546 10.96C89.5306 11.408 89.7686 12.024 89.7686 12.808C89.7686 13.886 89.3486 14.726 88.5086 15.328C87.6686 15.93 86.5626 16.231 85.1906 16.231ZM95.6735 16.231C94.4555 16.231 93.4055 16.014 92.5235 15.58C91.6555 15.132 90.9835 14.509 90.5075 13.711C90.0455 12.899 89.8145 11.947 89.8145 10.855C89.8145 9.791 90.0385 8.86 90.4865 8.062C90.9485 7.25 91.5715 6.62 92.3555 6.172C93.1535 5.71 94.0705 5.479 95.1065 5.479C96.6045 5.479 97.7945 5.955 98.6765 6.907C99.5585 7.845 99.9995 9.119 99.9995 10.729C99.9995 11.261 99.6705 11.527 99.0125 11.527H92.8385C92.9505 12.339 93.2445 12.934 93.7205 13.312C94.2105 13.676 94.8825 13.858 95.7365 13.858C96.0725 13.858 96.4505 13.823 96.8705 13.753C97.3045 13.669 97.7175 13.529 98.1095 13.333C98.5155 13.137 98.8585 13.102 99.1385 13.228C99.4185 13.34 99.6075 13.536 99.7055 13.816C99.8175 14.096 99.8175 14.39 99.7055 14.698C99.6075 14.992 99.3765 15.237 99.0125 15.433C98.5225 15.699 97.9765 15.895 97.3745 16.021C96.7865 16.161 96.2195 16.231 95.6735 16.231ZM95.2325 7.579C94.5605 7.579 94.0145 7.782 93.5945 8.188C93.1885 8.594 92.9365 9.161 92.8385 9.889H97.3745C97.2905 8.349 96.5765 7.579 95.2325 7.579ZM38.2424 34.231C36.5764 34.231 35.1624 33.916 34.0004 33.286C32.8524 32.656 31.9774 31.774 31.3754 30.64C30.7734 29.506 30.4724 28.176 30.4724 26.65C30.4724 25.082 30.7804 23.724 31.3964 22.576C32.0264 21.428 32.9294 20.539 34.1054 19.909C35.2814 19.279 36.6954 18.964 38.3474 18.964C39.1034 18.964 39.8594 19.048 40.6154 19.216C41.3714 19.384 42.0994 19.664 42.7994 20.056C43.1774 20.266 43.4014 20.546 43.4714 20.896C43.5554 21.246 43.5204 21.589 43.3664 21.925C43.2124 22.247 42.9744 22.485 42.6524 22.639C42.3444 22.779 41.9734 22.744 41.5394 22.534C40.6014 22.044 39.5444 21.799 38.3684 21.799C36.8704 21.799 35.7434 22.219 34.9874 23.059C34.2454 23.885 33.8744 25.082 33.8744 26.65C33.8744 28.232 34.2524 29.429 35.0084 30.241C35.7784 31.053 36.9124 31.459 38.4104 31.459C39.2084 31.459 40.0484 31.333 40.9304 31.081V28.183H39.0404C38.1724 28.183 37.7384 27.791 37.7384 27.007C37.7384 26.223 38.1724 25.831 39.0404 25.831H42.3374C43.1914 25.831 43.6184 26.265 43.6184 27.133V32.005C43.6184 32.369 43.5414 32.677 43.3874 32.929C43.2474 33.181 43.0164 33.363 42.6944 33.475C42.0644 33.699 41.3574 33.881 40.5734 34.021C39.7894 34.161 39.0124 34.231 38.2424 34.231ZM48.4523 34.231C47.6823 34.231 47.0033 34.084 46.4153 33.79C45.8273 33.496 45.3583 33.097 45.0083 32.593C44.6723 32.089 44.5043 31.522 44.5043 30.892C44.5043 30.15 44.7003 29.555 45.0923 29.107C45.4843 28.659 46.1213 28.344 47.0033 28.162C47.8853 27.966 49.0543 27.868 50.5103 27.868H51.2663V27.511C51.2663 26.895 51.1263 26.461 50.8463 26.209C50.5663 25.943 50.0903 25.81 49.4183 25.81C49.0403 25.81 48.6273 25.859 48.1793 25.957C47.7313 26.041 47.2483 26.188 46.7303 26.398C46.3383 26.566 46.0093 26.58 45.7433 26.44C45.4773 26.286 45.3023 26.062 45.2183 25.768C45.1343 25.46 45.1553 25.152 45.2813 24.844C45.4213 24.536 45.6873 24.312 46.0793 24.172C46.7373 23.92 47.3533 23.745 47.9273 23.647C48.5153 23.535 49.0543 23.479 49.5443 23.479C51.1403 23.479 52.3303 23.843 53.1143 24.571C53.8983 25.285 54.2903 26.398 54.2903 27.91V32.572C54.2903 33.65 53.8003 34.189 52.8203 34.189C51.8263 34.189 51.3293 33.65 51.3293 32.572V32.446C51.1193 32.992 50.7623 33.426 50.2583 33.748C49.7683 34.07 49.1663 34.231 48.4523 34.231ZM49.1663 32.11C49.7543 32.11 50.2513 31.907 50.6573 31.501C51.0633 31.095 51.2663 30.57 51.2663 29.926V29.506H50.5313C49.4533 29.506 48.6903 29.604 48.2423 29.8C47.7943 29.982 47.5703 30.304 47.5703 30.766C47.5703 31.158 47.7033 31.48 47.9693 31.732C48.2493 31.984 48.6483 32.11 49.1663 32.11ZM57.0338 34.189C55.9698 34.189 55.4378 33.65 55.4378 32.572V25.117C55.4378 24.053 55.9558 23.521 56.9918 23.521C58.0278 23.521 58.5458 24.053 58.5458 25.117V25.18C58.8538 24.648 59.2738 24.235 59.8058 23.941C60.3518 23.633 60.9818 23.479 61.6958 23.479C62.4238 23.479 63.0398 23.64 63.5438 23.962C64.0618 24.284 64.4538 24.774 64.7198 25.432C65.0418 24.816 65.5038 24.34 66.1058 24.004C66.7218 23.654 67.4008 23.479 68.1428 23.479C69.3188 23.479 70.1938 23.836 70.7678 24.55C71.3418 25.25 71.6288 26.335 71.6288 27.805V32.572C71.6288 33.09 71.4888 33.489 71.2088 33.769C70.9428 34.049 70.5578 34.189 70.0538 34.189C68.9898 34.189 68.4578 33.65 68.4578 32.572V27.91C68.4578 27.224 68.3458 26.727 68.1218 26.419C67.9118 26.097 67.5478 25.936 67.0298 25.936C66.4278 25.936 65.9588 26.146 65.6228 26.566C65.2868 26.986 65.1188 27.581 65.1188 28.351V32.572C65.1188 33.65 64.5938 34.189 63.5438 34.189C63.0398 34.189 62.6478 34.049 62.3678 33.769C62.0878 33.489 61.9478 33.09 61.9478 32.572V27.91C61.9478 27.224 61.8358 26.727 61.6118 26.419C61.3878 26.097 61.0238 25.936 60.5198 25.936C59.9178 25.936 59.4488 26.146 59.1128 26.566C58.7768 26.986 58.6088 27.581 58.6088 28.351V32.572C58.6088 33.65 58.0838 34.189 57.0338 34.189ZM78.1529 34.231C76.9349 34.231 75.8849 34.014 75.0029 33.58C74.1349 33.132 73.4629 32.509 72.9869 31.711C72.5249 30.899 72.2939 29.947 72.2939 28.855C72.2939 27.791 72.5179 26.86 72.9659 26.062C73.4279 25.25 74.0509 24.62 74.8349 24.172C75.6329 23.71 76.5499 23.479 77.5859 23.479C79.0839 23.479 80.2739 23.955 81.1559 24.907C82.0379 25.845 82.4789 27.119 82.4789 28.729C82.4789 29.261 82.1499 29.527 81.4919 29.527H75.3179C75.4299 30.339 75.7239 30.934 76.1999 31.312C76.6899 31.676 77.3619 31.858 78.2159 31.858C78.5519 31.858 78.9299 31.823 79.3499 31.753C79.7839 31.669 80.1969 31.529 80.5889 31.333C80.9949 31.137 81.3379 31.102 81.6179 31.228C81.8979 31.34 82.0869 31.536 82.1849 31.816C82.2969 32.096 82.2969 32.39 82.1849 32.698C82.0869 32.992 81.8559 33.237 81.4919 33.433C81.0019 33.699 80.4559 33.895 79.8539 34.021C79.2659 34.161 78.6989 34.231 78.1529 34.231ZM77.7119 25.579C77.0399 25.579 76.4939 25.782 76.0739 26.188C75.6679 26.594 75.4159 27.161 75.3179 27.889H79.8539C79.7699 26.349 79.0559 25.579 77.7119 25.579ZM87.0113 34.231C86.3953 34.231 85.7583 34.175 85.1003 34.063C84.4563 33.951 83.8683 33.762 83.3363 33.496C82.9863 33.314 82.7553 33.083 82.6433 32.803C82.5453 32.523 82.5453 32.25 82.6433 31.984C82.7413 31.718 82.9163 31.522 83.1683 31.396C83.4203 31.256 83.7143 31.256 84.0503 31.396C84.6243 31.634 85.1493 31.802 85.6253 31.9C86.1153 31.998 86.5843 32.047 87.0323 32.047C87.6203 32.047 88.0543 31.956 88.3343 31.774C88.6143 31.578 88.7543 31.326 88.7543 31.018C88.7543 30.528 88.3973 30.22 87.6833 30.094L85.4783 29.695C84.5963 29.541 83.9243 29.226 83.4623 28.75C83.0003 28.274 82.7693 27.651 82.7693 26.881C82.7693 26.181 82.9653 25.579 83.3573 25.075C83.7493 24.571 84.2883 24.179 84.9743 23.899C85.6603 23.619 86.4513 23.479 87.3473 23.479C88.5793 23.479 89.6713 23.717 90.6233 24.193C90.9453 24.347 91.1413 24.564 91.2113 24.844C91.2953 25.124 91.2813 25.397 91.1693 25.663C91.0573 25.929 90.8753 26.132 90.6233 26.272C90.3713 26.398 90.0703 26.384 89.7203 26.23C89.2583 26.02 88.8383 25.873 88.4603 25.789C88.0823 25.691 87.7253 25.642 87.3893 25.642C86.7593 25.642 86.3043 25.747 86.0243 25.957C85.7443 26.153 85.6043 26.405 85.6043 26.713C85.6043 27.203 85.9333 27.511 86.5913 27.637L88.7963 28.036C89.7063 28.19 90.3993 28.498 90.8753 28.96C91.3513 29.408 91.5893 30.024 91.5893 30.808C91.5893 31.886 91.1693 32.726 90.3293 33.328C89.4893 33.93 88.3833 34.231 87.0113 34.231Z" fill="#11DBFF"/>
<defs>
<clipPath id="clip0_148_510">
<rect width="25.937" height="25.937" fill="white" transform="matrix(0.983938 -0.178508 0.179051 0.98384 0.504883 12.958)"/>
</clipPath>
</defs>
</svg>
