<svg width="259" height="44" viewBox="0 0 259 44" fill="none" xmlns="http://www.w3.org/2000/svg">
<g clip-path="url(#clip0_2_147)">
<path d="M7.43793 24.4363L14.6125 23.1347M7.43793 24.4363C8.73582 31.5679 15.5698 36.3003 22.7022 35.0063M7.43793 24.4363C6.14004 17.3047 10.8698 10.4745 18.0021 9.18051M14.6125 23.1347L26.0918 21.0521M14.6125 23.1347C15.9104 30.2663 19.5322 35.5814 22.7022 35.0063M14.6125 23.1347C13.3146 16.0031 14.8322 9.75561 18.0021 9.18051M26.0918 21.0521L33.2663 19.7505M26.0918 21.0521C24.7939 13.9205 21.172 8.60542 18.0021 9.18051M26.0918 21.0521C27.3897 28.1837 25.8721 34.4312 22.7022 35.0063M33.2663 19.7505C31.9684 12.6189 25.1344 7.88655 18.0021 9.18051M33.2663 19.7505C34.5642 26.8821 29.8345 33.7124 22.7022 35.0063" stroke="#11DBFF" stroke-width="3.65969" stroke-linecap="round" stroke-linejoin="round"/>
</g>
<path d="M48.9498 33.2882C48.2666 33.2882 47.7116 33.1281 47.2846 32.8079C46.8577 32.4663 46.5161 31.9539 46.2599 31.2708L39.7914 13.0822C39.5139 12.2709 39.5673 11.5771 39.9515 11.0007C40.3571 10.4243 41.051 10.1361 42.033 10.1361C42.7161 10.1361 43.2392 10.2962 43.6021 10.6164C43.9863 10.9367 44.2959 11.4383 44.5307 12.1215L49.8144 27.8444H48.4374L54.0093 12.1535C54.2655 11.4704 54.575 10.9687 54.938 10.6485C55.3222 10.3069 55.8239 10.1361 56.443 10.1361C57.0407 10.1361 57.5211 10.3069 57.884 10.6485C58.2469 10.9687 58.5565 11.481 58.8126 12.1855L64.1283 27.8444H62.9435L68.3233 12.1215C68.5367 11.4597 68.8356 10.9687 69.2199 10.6485C69.6041 10.3069 70.1272 10.1361 70.789 10.1361C71.6216 10.1361 72.23 10.4243 72.6142 11.0007C72.9985 11.5771 73.0412 12.2709 72.7423 13.0822L66.2098 31.3028C65.975 31.9646 65.6547 32.4663 65.2491 32.8079C64.8435 33.1281 64.2885 33.2882 63.584 33.2882C62.9008 33.2882 62.3564 33.1281 61.9508 32.8079C61.5452 32.4663 61.2143 31.9539 60.9581 31.2708L55.8986 16.9568H56.6672L51.5436 31.3028C51.2874 31.9646 50.9565 32.4663 50.5509 32.8079C50.1666 33.1281 49.6329 33.2882 48.9498 33.2882ZM80.2248 33.3522C78.3675 33.3522 76.7664 33.0213 75.4214 32.3596C74.0979 31.6764 73.0731 30.7264 72.3473 29.5096C71.6428 28.2714 71.2906 26.8197 71.2906 25.1545C71.2906 23.5321 71.6321 22.1124 72.3153 20.8956C72.9984 19.6574 73.9484 18.6967 75.1653 18.0136C76.4035 17.3091 77.8018 16.9568 79.3602 16.9568C80.4916 16.9568 81.5163 17.149 82.4343 17.5332C83.3523 17.8962 84.1422 18.4299 84.804 19.1344C85.4658 19.8175 85.9674 20.6608 86.309 21.6641C86.6506 22.6461 86.8214 23.7456 86.8214 24.9624C86.8214 25.368 86.6933 25.6776 86.4371 25.8911C86.1809 26.0832 85.8073 26.1793 85.3163 26.1793H75.2613V23.6815H83.3309L82.8186 24.1298C82.8186 23.2546 82.6905 22.5287 82.4343 21.9523C82.1781 21.3546 81.8045 20.9063 81.3135 20.6074C80.8439 20.3085 80.2568 20.1591 79.5523 20.1591C78.7624 20.1591 78.09 20.3405 77.5349 20.7035C76.9799 21.0664 76.5529 21.5894 76.254 22.2725C75.9551 22.9557 75.8057 23.7776 75.8057 24.7383V24.9944C75.8057 26.6169 76.1793 27.8124 76.9265 28.5809C77.695 29.3495 78.8265 29.7337 80.3208 29.7337C80.8332 29.7337 81.4203 29.6697 82.0821 29.5416C82.7439 29.4135 83.363 29.2107 83.9394 28.9332C84.4304 28.6983 84.868 28.6236 85.2523 28.709C85.6365 28.7731 85.9354 28.9438 86.1489 29.2214C86.3624 29.4989 86.4798 29.8191 86.5011 30.182C86.5438 30.545 86.4691 30.9079 86.277 31.2708C86.0849 31.6124 85.7646 31.9006 85.3163 32.1354C84.5905 32.541 83.7686 32.8399 82.8506 33.032C81.954 33.2455 81.0787 33.3522 80.2248 33.3522ZM93.3804 33.3522C91.4804 33.3522 90.0608 32.8292 89.1215 31.7832C88.1821 30.7157 87.7125 29.136 87.7125 27.0439V12.6018C87.7125 11.7906 87.9153 11.1822 88.3209 10.7765C88.7479 10.3496 89.3563 10.1361 90.1462 10.1361C90.9147 10.1361 91.5018 10.3496 91.9074 10.7765C92.3344 11.1822 92.5479 11.7906 92.5479 12.6018V26.8517C92.5479 27.727 92.7293 28.3781 93.0922 28.8051C93.4765 29.2107 93.9782 29.4135 94.5973 29.4135C94.7681 29.4135 94.9282 29.4028 95.0776 29.3815C95.227 29.3601 95.3872 29.3495 95.5579 29.3495C95.8995 29.3068 96.1343 29.4135 96.2624 29.6697C96.4119 29.9045 96.4866 30.3848 96.4866 31.1107C96.4866 31.7511 96.3585 32.2421 96.1023 32.5837C95.8461 32.9039 95.4512 33.1174 94.9175 33.2242C94.704 33.2455 94.4585 33.2669 94.181 33.2882C93.9035 33.3309 93.6366 33.3522 93.3804 33.3522ZM102.486 33.2882C101.845 33.2882 101.301 33.1388 100.852 32.8399C100.404 32.5197 100.041 32.018 99.7636 31.3348L95.2485 20.1591C95.0136 19.5613 94.9389 19.0383 95.0243 18.59C95.1097 18.1203 95.3339 17.7467 95.6968 17.4692C96.0811 17.1703 96.6041 17.0209 97.2659 17.0209C97.8209 17.0209 98.2799 17.1597 98.6428 17.4372C99.0058 17.6934 99.3153 18.195 99.5715 18.9422L103.094 28.3247H102.357L106.008 18.5259C106.179 18.0136 106.424 17.64 106.744 17.4052C107.086 17.149 107.524 17.0209 108.057 17.0209C108.591 17.0209 109.018 17.149 109.338 17.4052C109.68 17.6613 109.947 18.0349 110.139 18.5259L113.725 28.3247H113.117L116.607 18.8141C116.864 18.131 117.194 17.6613 117.6 17.4052C118.006 17.149 118.443 17.0209 118.913 17.0209C119.511 17.0209 119.97 17.1703 120.29 17.4692C120.631 17.7681 120.824 18.1523 120.866 18.622C120.93 19.0917 120.845 19.604 120.61 20.1591L116.127 31.3348C115.871 31.9966 115.508 32.4876 115.038 32.8079C114.59 33.1281 114.046 33.2882 113.405 33.2882C112.786 33.2882 112.242 33.1281 111.772 32.8079C111.324 32.4876 110.961 31.9966 110.683 31.3348L106.841 21.3439H108.922L105.175 31.3028C104.919 31.9646 104.567 32.4663 104.119 32.8079C103.67 33.1281 103.126 33.2882 102.486 33.2882ZM124.111 33.2562C123.321 33.2562 122.713 33.032 122.286 32.5837C121.88 32.1141 121.677 31.4629 121.677 30.6304V19.6787C121.677 18.8248 121.88 18.1737 122.286 17.7254C122.713 17.2557 123.321 17.0209 124.111 17.0209C124.88 17.0209 125.467 17.2557 125.872 17.7254C126.299 18.1737 126.513 18.8248 126.513 19.6787V30.6304C126.513 31.4629 126.31 32.1141 125.904 32.5837C125.499 33.032 124.901 33.2562 124.111 33.2562ZM124.111 14.3951C123.214 14.3951 122.521 14.1923 122.03 13.7866C121.56 13.3597 121.325 12.7619 121.325 11.9934C121.325 11.2035 121.56 10.6058 122.03 10.2001C122.521 9.77318 123.214 9.5597 124.111 9.5597C125.008 9.5597 125.691 9.77318 126.16 10.2001C126.63 10.6058 126.865 11.2035 126.865 11.9934C126.865 12.7619 126.63 13.3597 126.16 13.7866C125.691 14.1923 125.008 14.3951 124.111 14.3951ZM134.345 33.3522C133.405 33.3522 132.434 33.2669 131.431 33.0961C130.449 32.9253 129.552 32.6371 128.741 32.2315C128.314 32.018 128.004 31.7511 127.812 31.4309C127.641 31.0893 127.567 30.7478 127.588 30.4062C127.609 30.0646 127.716 29.7551 127.908 29.4776C128.122 29.2 128.389 29.0186 128.709 28.9332C129.05 28.8264 129.424 28.8585 129.83 29.0292C130.705 29.3922 131.505 29.6483 132.231 29.7978C132.957 29.9472 133.672 30.0219 134.377 30.0219C135.295 30.0219 135.956 29.8832 136.362 29.6056C136.789 29.3068 137.003 28.9225 137.003 28.4528C137.003 28.0259 136.864 27.7057 136.586 27.4922C136.309 27.2787 135.903 27.1293 135.369 27.0439L132.007 26.4354C130.683 26.2006 129.659 25.7203 128.933 24.9944C128.228 24.2472 127.876 23.2973 127.876 22.1445C127.876 21.077 128.175 20.1591 128.773 19.3905C129.371 18.6007 130.192 18.0029 131.238 17.5973C132.306 17.1703 133.512 16.9568 134.857 16.9568C135.818 16.9568 136.704 17.0422 137.515 17.213C138.326 17.3838 139.105 17.6613 139.852 18.0456C140.237 18.2377 140.504 18.4939 140.653 18.8141C140.824 19.1344 140.877 19.4653 140.813 19.8068C140.77 20.1484 140.642 20.4579 140.429 20.7355C140.215 21.013 139.938 21.1945 139.596 21.2799C139.276 21.3652 138.902 21.3225 138.476 21.1518C137.792 20.8315 137.163 20.6074 136.586 20.4793C136.01 20.3299 135.455 20.2551 134.921 20.2551C133.96 20.2551 133.267 20.4152 132.84 20.7355C132.413 21.0343 132.199 21.4186 132.199 21.8883C132.199 22.2512 132.317 22.5607 132.551 22.8169C132.808 23.0517 133.192 23.2119 133.704 23.2973L137.067 23.9057C138.454 24.1405 139.511 24.6102 140.237 25.3147C140.963 25.9978 141.326 26.9371 141.326 28.1326C141.326 29.7551 140.685 31.036 139.404 31.9753C138.145 32.8933 136.458 33.3522 134.345 33.3522ZM150.33 33.3522C148.472 33.3522 146.871 33.0213 145.526 32.3596C144.203 31.6764 143.178 30.7264 142.452 29.5096C141.748 28.2714 141.396 26.8197 141.396 25.1545C141.396 23.5321 141.737 22.1124 142.42 20.8956C143.103 19.6574 144.053 18.6967 145.27 18.0136C146.508 17.3091 147.907 16.9568 149.465 16.9568C150.597 16.9568 151.621 17.149 152.539 17.5332C153.457 17.8962 154.247 18.4299 154.909 19.1344C155.571 19.8175 156.072 20.6608 156.414 21.6641C156.756 22.6461 156.926 23.7456 156.926 24.9624C156.926 25.368 156.798 25.6776 156.542 25.8911C156.286 26.0832 155.912 26.1793 155.421 26.1793H145.366V23.6815H153.436L152.924 24.1298C152.924 23.2546 152.795 22.5287 152.539 21.9523C152.283 21.3546 151.91 20.9063 151.419 20.6074C150.949 20.3085 150.362 20.1591 149.657 20.1591C148.867 20.1591 148.195 20.3405 147.64 20.7035C147.085 21.0664 146.658 21.5894 146.359 22.2725C146.06 22.9557 145.911 23.7776 145.911 24.7383V24.9944C145.911 26.6169 146.284 27.8124 147.031 28.5809C147.8 29.3495 148.931 29.7337 150.426 29.7337C150.938 29.7337 151.525 29.6697 152.187 29.5416C152.849 29.4135 153.468 29.2107 154.044 28.9332C154.535 28.6983 154.973 28.6236 155.357 28.709C155.742 28.7731 156.04 28.9438 156.254 29.2214C156.467 29.4989 156.585 29.8191 156.606 30.182C156.649 30.545 156.574 30.9079 156.382 31.2708C156.19 31.6124 155.87 31.9006 155.421 32.1354C154.695 32.541 153.874 32.8399 152.956 33.032C152.059 33.2455 151.184 33.3522 150.33 33.3522ZM176.432 33.3522C173.891 33.3522 171.735 32.8719 169.963 31.9112C168.213 30.9506 166.879 29.6056 165.961 27.8764C165.043 26.1472 164.584 24.1192 164.584 21.7922C164.584 19.999 164.851 18.3872 165.384 16.9568C165.939 15.5052 166.729 14.2776 167.754 13.2743C168.8 12.2496 170.059 11.4597 171.533 10.9046C173.027 10.3496 174.713 10.0721 176.592 10.0721C177.745 10.0721 178.898 10.2001 180.05 10.4563C181.203 10.7125 182.313 11.1395 183.381 11.7372C183.829 11.9934 184.128 12.3243 184.277 12.7299C184.448 13.1142 184.491 13.5305 184.405 13.9788C184.341 14.4057 184.171 14.79 183.893 15.1316C183.637 15.4518 183.295 15.6653 182.868 15.772C182.463 15.8574 181.993 15.772 181.459 15.5158C180.755 15.1316 180.008 14.8541 179.218 14.6833C178.428 14.4911 177.563 14.3951 176.624 14.3951C175.108 14.3951 173.838 14.6833 172.813 15.2597C171.789 15.8147 171.02 16.6473 170.508 17.7574C170.017 18.8462 169.771 20.1911 169.771 21.7922C169.771 24.2046 170.348 26.0298 171.5 27.268C172.675 28.5062 174.404 29.1253 176.688 29.1253C177.457 29.1253 178.247 29.0506 179.058 28.9012C179.869 28.7517 180.67 28.5382 181.459 28.2607L180.531 30.2781V24.1298H177.649C177.008 24.1298 176.517 23.9697 176.176 23.6495C175.834 23.3293 175.663 22.8916 175.663 22.3366C175.663 21.7602 175.834 21.3225 176.176 21.0237C176.517 20.7035 177.008 20.5433 177.649 20.5433H182.676C183.317 20.5433 183.797 20.7141 184.117 21.0557C184.459 21.3973 184.63 21.8883 184.63 22.5287V29.9579C184.63 30.5129 184.523 30.9826 184.309 31.3669C184.096 31.7511 183.733 32.0287 183.221 32.1994C182.26 32.541 181.182 32.8185 179.986 33.032C178.791 33.2455 177.606 33.3522 176.432 33.3522ZM192.001 33.3522C190.848 33.3522 189.813 33.1281 188.895 32.6798C187.977 32.2315 187.261 31.623 186.749 30.8545C186.237 30.086 185.981 29.2214 185.981 28.2607C185.981 27.1079 186.279 26.2006 186.877 25.5388C187.475 24.8557 188.446 24.3753 189.791 24.0978C191.136 23.7989 192.919 23.6495 195.139 23.6495H196.836V26.1472H195.171C194.082 26.1472 193.196 26.2113 192.513 26.3394C191.851 26.4461 191.371 26.6382 191.072 26.9158C190.795 27.1933 190.656 27.5776 190.656 28.0686C190.656 28.6663 190.859 29.1573 191.264 29.5416C191.691 29.9259 192.3 30.118 193.09 30.118C193.709 30.118 194.253 29.9792 194.723 29.7017C195.214 29.4028 195.598 29.0079 195.875 28.5169C196.153 28.0045 196.292 27.4281 196.292 26.7877V23.1051C196.292 22.1658 196.078 21.504 195.651 21.1197C195.224 20.7141 194.498 20.5113 193.474 20.5113C192.897 20.5113 192.268 20.586 191.584 20.7355C190.923 20.8636 190.186 21.0877 189.375 21.4079C188.905 21.6214 188.489 21.6748 188.126 21.5681C187.763 21.44 187.486 21.2265 187.293 20.9276C187.101 20.6074 187.005 20.2658 187.005 19.9029C187.005 19.5186 187.112 19.1557 187.325 18.8141C187.539 18.4512 187.891 18.1844 188.382 18.0136C189.386 17.608 190.325 17.3304 191.2 17.181C192.097 17.0316 192.919 16.9568 193.666 16.9568C195.31 16.9568 196.655 17.2023 197.701 17.6934C198.768 18.163 199.569 18.8995 200.102 19.9029C200.636 20.8849 200.903 22.1551 200.903 23.7135V30.8225C200.903 31.6124 200.711 32.2208 200.327 32.6478C199.942 33.0747 199.387 33.2882 198.661 33.2882C197.936 33.2882 197.37 33.0747 196.964 32.6478C196.58 32.2208 196.388 31.6124 196.388 30.8225V29.6377L196.612 29.8298C196.484 30.5556 196.206 31.1854 195.779 31.7191C195.374 32.2315 194.851 32.6371 194.21 32.936C193.57 33.2135 192.833 33.3522 192.001 33.3522ZM205.086 33.2882C204.296 33.2882 203.688 33.0747 203.261 32.6478C202.855 32.2208 202.653 31.6124 202.653 30.8225V19.4546C202.653 18.6647 202.855 18.067 203.261 17.6613C203.688 17.2344 204.275 17.0209 205.022 17.0209C205.791 17.0209 206.378 17.2344 206.784 17.6613C207.189 18.067 207.392 18.6647 207.392 19.4546V21.504L207.04 20.2231C207.467 19.2411 208.128 18.4512 209.025 17.8535C209.922 17.2557 210.978 16.9568 212.195 16.9568C213.412 16.9568 214.426 17.245 215.237 17.8214C216.049 18.3978 216.625 19.2838 216.967 20.4793H216.518C216.988 19.3905 217.703 18.5366 218.664 17.9175C219.646 17.2771 220.767 16.9568 222.026 16.9568C223.243 16.9568 224.236 17.2023 225.004 17.6934C225.794 18.163 226.381 18.8889 226.765 19.8709C227.15 20.8315 227.342 22.0591 227.342 23.5534V30.8225C227.342 31.6124 227.128 32.2208 226.701 32.6478C226.296 33.0747 225.709 33.2882 224.94 33.2882C224.15 33.2882 223.542 33.0747 223.115 32.6478C222.709 32.2208 222.506 31.6124 222.506 30.8225V23.7135C222.506 22.6675 222.336 21.9096 221.994 21.44C221.674 20.949 221.119 20.7035 220.329 20.7035C219.411 20.7035 218.696 21.0237 218.183 21.6641C217.671 22.3046 217.415 23.2119 217.415 24.386V30.8225C217.415 31.6124 217.201 32.2208 216.774 32.6478C216.369 33.0747 215.782 33.2882 215.013 33.2882C214.245 33.2882 213.647 33.0747 213.22 32.6478C212.793 32.2208 212.58 31.6124 212.58 30.8225V23.7135C212.58 22.6675 212.409 21.9096 212.067 21.44C211.747 20.949 211.192 20.7035 210.402 20.7035C209.484 20.7035 208.769 21.0237 208.257 21.6641C207.744 22.3046 207.488 23.2119 207.488 24.386V30.8225C207.488 32.4663 206.687 33.2882 205.086 33.2882ZM237.29 33.3522C235.433 33.3522 233.832 33.0213 232.487 32.3596C231.163 31.6764 230.139 30.7264 229.413 29.5096C228.708 28.2714 228.356 26.8197 228.356 25.1545C228.356 23.5321 228.698 22.1124 229.381 20.8956C230.064 19.6574 231.014 18.6967 232.231 18.0136C233.469 17.3091 234.867 16.9568 236.426 16.9568C237.557 16.9568 238.582 17.149 239.5 17.5332C240.418 17.8962 241.208 18.4299 241.869 19.1344C242.531 19.8175 243.033 20.6608 243.374 21.6641C243.716 22.6461 243.887 23.7456 243.887 24.9624C243.887 25.368 243.759 25.6776 243.503 25.8911C243.246 26.0832 242.873 26.1793 242.382 26.1793H232.327V23.6815H240.396L239.884 24.1298C239.884 23.2546 239.756 22.5287 239.5 21.9523C239.244 21.3546 238.87 20.9063 238.379 20.6074C237.909 20.3085 237.322 20.1591 236.618 20.1591C235.828 20.1591 235.155 20.3405 234.6 20.7035C234.045 21.0664 233.618 21.5894 233.319 22.2725C233.021 22.9557 232.871 23.7776 232.871 24.7383V24.9944C232.871 26.6169 233.245 27.8124 233.992 28.5809C234.76 29.3495 235.892 29.7337 237.386 29.7337C237.899 29.7337 238.486 29.6697 239.148 29.5416C239.809 29.4135 240.428 29.2107 241.005 28.9332C241.496 28.6983 241.933 28.6236 242.318 28.709C242.702 28.7731 243.001 28.9438 243.214 29.2214C243.428 29.4989 243.545 29.8191 243.567 30.182C243.609 30.545 243.535 30.9079 243.342 31.2708C243.15 31.6124 242.83 31.9006 242.382 32.1354C241.656 32.541 240.834 32.8399 239.916 33.032C239.019 33.2455 238.144 33.3522 237.29 33.3522ZM250.798 33.3522C249.859 33.3522 248.887 33.2669 247.884 33.0961C246.902 32.9253 246.005 32.6371 245.194 32.2315C244.767 32.018 244.458 31.7511 244.266 31.4309C244.095 31.0893 244.02 30.7478 244.041 30.4062C244.063 30.0646 244.17 29.7551 244.362 29.4776C244.575 29.2 244.842 29.0186 245.162 28.9332C245.504 28.8264 245.877 28.8585 246.283 29.0292C247.158 29.3922 247.959 29.6483 248.685 29.7978C249.41 29.9472 250.126 30.0219 250.83 30.0219C251.748 30.0219 252.41 29.8832 252.816 29.6056C253.242 29.3068 253.456 28.9225 253.456 28.4528C253.456 28.0259 253.317 27.7057 253.04 27.4922C252.762 27.2787 252.357 27.1293 251.823 27.0439L248.461 26.4354C247.137 26.2006 246.112 25.7203 245.386 24.9944C244.682 24.2472 244.33 23.2973 244.33 22.1445C244.33 21.077 244.629 20.1591 245.226 19.3905C245.824 18.6007 246.646 18.0029 247.692 17.5973C248.759 17.1703 249.966 16.9568 251.31 16.9568C252.271 16.9568 253.157 17.0422 253.968 17.213C254.78 17.3838 255.559 17.6613 256.306 18.0456C256.69 18.2377 256.957 18.4939 257.107 18.8141C257.277 19.1344 257.331 19.4653 257.267 19.8068C257.224 20.1484 257.096 20.4579 256.882 20.7355C256.669 21.013 256.391 21.1945 256.05 21.2799C255.73 21.3652 255.356 21.3225 254.929 21.1518C254.246 20.8315 253.616 20.6074 253.04 20.4793C252.463 20.3299 251.908 20.2551 251.375 20.2551C250.414 20.2551 249.72 20.4152 249.293 20.7355C248.866 21.0343 248.653 21.4186 248.653 21.8883C248.653 22.2512 248.77 22.5607 249.005 22.8169C249.261 23.0517 249.645 23.2119 250.158 23.2973L253.52 23.9057C254.908 24.1405 255.964 24.6102 256.69 25.3147C257.416 25.9978 257.779 26.9371 257.779 28.1326C257.779 29.7551 257.139 31.036 255.858 31.9753C254.598 32.8933 252.912 33.3522 250.798 33.3522Z" fill="#11DBFF"/>
<defs>
<clipPath id="clip0_2_147">
<rect width="35" height="35" fill="white" transform="matrix(0.983938 -0.178508 0.179051 0.98384 0 8)"/>
</clipPath>
</defs>
</svg>
