<svg width="73" height="72" viewBox="0 0 73 72" fill="none" xmlns="http://www.w3.org/2000/svg">
<g clip-path="url(#clip0_25_191)">
<path d="M3.44606 15.5645C4.57284 12.5246 6.84837 10.0488 9.78266 8.67016C12.717 7.29153 16.0753 7.12037 19.1346 8.19355C21.2693 8.93274 23.1566 10.2508 24.5856 12.0005H32.7306C34.16 10.2513 36.0471 8.93338 38.1816 8.19355C41.241 7.11911 44.6 7.28964 47.5349 8.66841C50.4697 10.0472 52.7454 12.5238 53.8716 15.5645C54.6927 17.853 55.368 20.1912 55.8936 22.565C54.6325 22.6778 53.3902 22.9453 52.1946 23.3615C50.0136 24.1208 48.0334 25.365 46.4031 27.0005H40.9146C39.0903 25.1777 36.837 23.843 34.3618 23.1191C31.8866 22.3953 29.2691 22.3056 26.7502 22.8583C24.2313 23.411 21.8919 24.5884 19.9472 26.2821C18.0025 27.9758 16.515 30.1314 15.6216 32.5505C14.1994 36.4845 13.1939 40.5568 12.6216 44.7005C11.6606 45.4759 10.5306 46.0141 9.32302 46.2715C8.11543 46.529 6.86418 46.4985 5.67056 46.1825C4.80144 45.8404 4.01083 45.3254 3.34665 44.6687C2.68245 44.012 2.15851 43.2272 1.80656 42.362C-0.878437 36.716 -0.20644 25.6985 3.44606 15.5645ZM39.1581 22.5005H41.4081V24.7505C41.4081 25.1484 41.5661 25.5299 41.8474 25.8112C42.1287 26.0925 42.5102 26.2505 42.9081 26.2505C43.3059 26.2505 43.6874 26.0925 43.9687 25.8112C44.25 25.5299 44.4081 25.1484 44.4081 24.7505V22.5005H46.6581C47.0559 22.5005 47.4374 22.3425 47.7187 22.0612C48 21.7799 48.1581 21.3984 48.1581 21.0005C48.1581 20.6027 48 20.2212 47.7187 19.9399C47.4374 19.6586 47.0559 19.5005 46.6581 19.5005H44.4081V17.2505C44.4081 16.8527 44.25 16.4712 43.9687 16.1899C43.6874 15.9086 43.3059 15.7505 42.9081 15.7505C42.5102 15.7505 42.1287 15.9086 41.8474 16.1899C41.5661 16.4712 41.4081 16.8527 41.4081 17.2505V19.5005H39.1581C38.7602 19.5005 38.3787 19.6586 38.0974 19.9399C37.8161 20.2212 37.6581 20.6027 37.6581 21.0005C37.6581 21.3984 37.8161 21.7799 38.0974 22.0612C38.3787 22.3425 38.7602 22.5005 39.1581 22.5005ZM18.1581 22.5005C18.4547 22.5005 18.7447 22.4126 18.9914 22.2478C19.2381 22.0829 19.4303 21.8487 19.5439 21.5746C19.6574 21.3005 19.6871 20.9989 19.6292 20.7079C19.5714 20.4169 19.4285 20.1497 19.2187 19.9399C19.0089 19.7301 18.7417 19.5872 18.4507 19.5294C18.1597 19.4715 17.8581 19.5012 17.584 19.6147C17.3099 19.7283 17.0757 19.9205 16.9109 20.1672C16.746 20.4139 16.6581 20.7039 16.6581 21.0005C16.6581 21.3984 16.8161 21.7799 17.0974 22.0612C17.3787 22.3425 17.7602 22.5005 18.1581 22.5005ZM14.4081 26.2505C14.7047 26.2505 14.9947 26.1626 15.2414 25.9978C15.4881 25.8329 15.6803 25.5987 15.7939 25.3246C15.9074 25.0505 15.9371 24.7489 15.8792 24.4579C15.8214 24.1669 15.6785 23.8997 15.4687 23.6899C15.2589 23.4801 14.9917 23.3372 14.7007 23.2794C14.4097 23.2215 14.1081 23.2512 13.834 23.3647C13.5599 23.4783 13.3257 23.6705 13.1609 23.9172C12.996 24.1639 12.9081 24.4539 12.9081 24.7505C12.9081 25.1484 13.0661 25.5299 13.3474 25.8112C13.6287 26.0925 14.0102 26.2505 14.4081 26.2505ZM14.4081 18.7505C14.7047 18.7505 14.9947 18.6626 15.2414 18.4978C15.4881 18.3329 15.6803 18.0987 15.7939 17.8246C15.9074 17.5505 15.9371 17.2489 15.8792 16.9579C15.8214 16.6669 15.6785 16.3997 15.4687 16.1899C15.2589 15.9801 14.9917 15.8372 14.7007 15.7794C14.4097 15.7215 14.1081 15.7512 13.834 15.8647C13.5599 15.9783 13.3257 16.1705 13.1609 16.4172C12.996 16.6639 12.9081 16.9539 12.9081 17.2505C12.9081 17.6484 13.0661 18.0299 13.3474 18.3112C13.6287 18.5925 14.0102 18.7505 14.4081 18.7505ZM10.6581 22.5005C10.9547 22.5005 11.2447 22.4126 11.4914 22.2478C11.7381 22.0829 11.9303 21.8487 12.0439 21.5746C12.1574 21.3005 12.1871 20.9989 12.1292 20.7079C12.0714 20.4169 11.9285 20.1497 11.7187 19.9399C11.5089 19.7301 11.2417 19.5872 10.9507 19.5294C10.6597 19.4715 10.3581 19.5012 10.084 19.6147C9.80995 19.7283 9.57568 19.9205 9.41085 20.1672C9.24603 20.4139 9.15806 20.7039 9.15806 21.0005C9.15806 21.3984 9.3161 21.7799 9.5974 22.0612C9.8787 22.3425 10.2602 22.5005 10.6581 22.5005Z" fill="black"/>
<path d="M18.4713 33.5667C19.598 30.5265 21.8739 28.0505 24.8086 26.672C27.7433 25.2936 31.102 25.1231 34.1613 26.1972C36.2956 26.935 38.1828 28.2515 39.6123 29.9997H47.7573C49.1872 28.252 51.0743 26.9357 53.2083 26.1972C56.2673 25.1236 59.6257 25.2943 62.56 26.6727C65.4944 28.0511 67.77 30.5268 68.8968 33.5667C72.5493 43.7007 73.2213 54.7197 70.5318 60.3627C70.18 61.2282 69.6561 62.0132 68.9919 62.6702C68.3277 63.3272 67.537 63.8424 66.6678 64.1847C66.059 64.3958 65.419 64.5023 64.7748 64.4997C60.8478 64.4997 56.1663 60.7497 51.8058 53.9997H35.5638C30.4743 61.8672 24.9513 65.6622 20.7018 64.1847C19.8325 63.8424 19.0418 63.3272 18.3776 62.6702C17.7134 62.0132 17.1895 61.2282 16.8378 60.3627C14.1483 54.7197 14.8203 43.7007 18.4713 33.5667ZM54.1848 40.4997H56.4348V42.7497C56.4348 43.1475 56.5928 43.5291 56.8741 43.8104C57.1554 44.0917 57.5369 44.2497 57.9348 44.2497C58.3326 44.2497 58.7141 44.0917 58.9954 43.8104C59.2767 43.5291 59.4348 43.1475 59.4348 42.7497V40.4997H61.6848C62.0826 40.4997 62.4641 40.3417 62.7454 40.0604C63.0267 39.7791 63.1848 39.3975 63.1848 38.9997C63.1848 38.6019 63.0267 38.2204 62.7454 37.9391C62.4641 37.6578 62.0826 37.4997 61.6848 37.4997H59.4348V35.2497C59.4348 34.8519 59.2767 34.4704 58.9954 34.1891C58.7141 33.9078 58.3326 33.7497 57.9348 33.7497C57.5369 33.7497 57.1554 33.9078 56.8741 34.1891C56.5928 34.4704 56.4348 34.8519 56.4348 35.2497V37.4997H54.1848C53.7869 37.4997 53.4054 37.6578 53.1241 37.9391C52.8428 38.2204 52.6848 38.6019 52.6848 38.9997C52.6848 39.3975 52.8428 39.7791 53.1241 40.0604C53.4054 40.3417 53.7869 40.4997 54.1848 40.4997ZM42.1848 47.9997H45.1848C45.5826 47.9997 45.9641 47.8417 46.2454 47.5604C46.5267 47.2791 46.6848 46.8975 46.6848 46.4997C46.6848 46.1019 46.5267 45.7204 46.2454 45.4391C45.9641 45.1578 45.5826 44.9997 45.1848 44.9997H42.1848C41.7869 44.9997 41.4054 45.1578 41.1241 45.4391C40.8428 45.7204 40.6848 46.1019 40.6848 46.4997C40.6848 46.8975 40.8428 47.2791 41.1241 47.5604C41.4054 47.8417 41.7869 47.9997 42.1848 47.9997ZM33.1848 40.4997C33.4814 40.4997 33.7714 40.4118 34.0181 40.2469C34.2648 40.0821 34.457 39.8478 34.5706 39.5737C34.6841 39.2997 34.7138 38.9981 34.6559 38.7071C34.5981 38.4161 34.4552 38.1488 34.2454 37.9391C34.0356 37.7293 33.7684 37.5864 33.4774 37.5285C33.1864 37.4707 32.8848 37.5004 32.6107 37.6139C32.3366 37.7274 32.1024 37.9197 31.9375 38.1664C31.7727 38.413 31.6848 38.7031 31.6848 38.9997C31.6848 39.3975 31.8428 39.7791 32.1241 40.0604C32.4054 40.3417 32.7869 40.4997 33.1848 40.4997ZM29.4348 44.2497C29.7314 44.2497 30.0214 44.1618 30.2681 43.9969C30.5148 43.8321 30.707 43.5978 30.8206 43.3237C30.9341 43.0497 30.9638 42.7481 30.9059 42.4571C30.8481 42.1661 30.7052 41.8988 30.4954 41.6891C30.2856 41.4793 30.0184 41.3364 29.7274 41.2785C29.4364 41.2207 29.1348 41.2504 28.8607 41.3639C28.5866 41.4774 28.3524 41.6697 28.1875 41.9164C28.0227 42.163 27.9348 42.4531 27.9348 42.7497C27.9348 43.1475 28.0928 43.5291 28.3741 43.8104C28.6554 44.0917 29.0369 44.2497 29.4348 44.2497ZM29.4348 36.7497C29.7314 36.7497 30.0214 36.6617 30.2681 36.4969C30.5148 36.3321 30.707 36.0978 30.8206 35.8237C30.9341 35.5497 30.9638 35.2481 30.9059 34.9571C30.8481 34.6661 30.7052 34.3988 30.4954 34.1891C30.2856 33.9793 30.0184 33.8364 29.7274 33.7785C29.4364 33.7207 29.1348 33.7504 28.8607 33.8639C28.5866 33.9774 28.3524 34.1697 28.1875 34.4164C28.0227 34.663 27.9348 34.953 27.9348 35.2497C27.9348 35.6475 28.0928 36.0291 28.3741 36.3104C28.6554 36.5917 29.0369 36.7497 29.4348 36.7497ZM25.6848 40.4997C25.9814 40.4997 26.2714 40.4118 26.5181 40.2469C26.7648 40.0821 26.957 39.8478 27.0706 39.5737C27.1841 39.2997 27.2138 38.9981 27.1559 38.7071C27.0981 38.4161 26.9552 38.1488 26.7454 37.9391C26.5356 37.7293 26.2684 37.5864 25.9774 37.5285C25.6864 37.4707 25.3848 37.5004 25.1107 37.6139C24.8366 37.7274 24.6024 37.9197 24.4375 38.1664C24.2727 38.413 24.1848 38.7031 24.1848 38.9997C24.1848 39.3975 24.3428 39.7791 24.6241 40.0604C24.9054 40.3417 25.2869 40.4997 25.6848 40.4997Z" fill="black"/>
</g>
<defs>
<clipPath id="clip0_25_191">
<rect width="72" height="72" fill="white" transform="matrix(-1 0 0 1 72.1709 0)"/>
</clipPath>
</defs>
</svg>
