<svg width="69" height="68" viewBox="0 0 69 68" fill="none" xmlns="http://www.w3.org/2000/svg">
<g clip-path="url(#clip0_25_196)">
<path d="M53.9524 54.3141C53.797 54.1587 53.6998 53.9838 53.6416 53.7895L53.2335 52.4681C52.9614 51.5549 52.1259 50.9525 51.1738 50.9525C50.2217 50.9525 49.3862 51.5549 49.0947 52.4681L48.6867 53.7895C48.5507 54.2558 48.1815 54.625 47.7151 54.7611L46.4132 55.1691C45.4805 55.4606 44.8782 56.2766 44.8782 57.2482C44.8782 58.2003 45.4805 59.0358 46.3937 59.3079L47.2099 59.5605C43.9843 61.387 40.409 62.5917 36.6782 62.9998C23.7372 65.1177 10.4269 55.888 7.95914 42.9275C5.56916 32.9788 10.7767 22.1168 20.6088 18.7358C26.8461 16.5206 34.5019 17.1619 39.0099 22.5832C41.1862 25.323 42.0606 28.976 41.2057 32.3765C40.4478 35.602 37.0863 38.6526 33.7053 37.8171C33.1612 37.7005 33.0446 36.9233 33.5304 36.6513C36.4257 34.9219 37.2418 31.6186 36.2702 28.5874C34.5214 23.6325 27.9342 23.2827 23.3874 25.4784C15.1486 29.3841 14.6045 39.9545 19.3263 46.736C27.2153 58.9192 45.8303 56.1211 54.0885 45.4535C57.1975 41.7033 59.2765 36.9816 60.1122 31.7741C60.2093 30.9386 61.5111 30.958 61.6083 31.7741C62.9685 40.11 59.7235 48.3682 53.9524 54.3141ZM55.4292 24.2738C52.9614 11.3131 39.6512 2.0834 26.7102 4.20143C22.2021 4.68721 17.9467 6.3388 14.2353 8.84548L14.6434 8.98151C15.5761 9.25345 16.1979 10.1084 16.1979 11.08C16.1979 12.0515 15.5761 12.8871 14.6434 13.1786L13.1278 13.6449C12.4866 13.8586 11.9814 14.3444 11.787 14.9856L11.3207 16.5207C11.0293 17.4534 10.1938 18.0752 9.20276 18.0752C8.25066 18.0752 7.39568 17.4534 7.10417 16.5207L6.90991 15.8601C2.75163 21.4368 0.633596 28.3931 1.78007 35.4272C1.87721 36.2432 3.17906 36.2432 3.27631 35.4272C4.11183 30.2196 6.19097 25.4979 9.29989 21.7476C17.5581 11.08 36.1731 8.28191 44.0621 20.4458C48.7838 27.2272 48.2397 37.7977 40.0009 41.7034C35.4541 43.9185 28.867 43.5493 27.1181 38.6139C26.1466 35.5825 26.9626 32.2794 29.858 30.55C30.3437 30.2779 30.2272 29.4813 29.683 29.3647C26.3021 28.5485 22.9405 31.5992 22.1827 34.8248C21.3277 38.2252 22.2021 41.8588 24.3784 44.618C28.8864 50.0392 36.5423 50.6805 42.7796 48.4653C52.6117 45.0649 57.8192 34.2224 55.4292 24.2738ZM5.91086 53.2736L5.39866 54.9345C4.97522 56.3076 3.9003 57.3825 2.52722 57.806L0.866324 58.3182C0.600548 58.4001 0.600548 58.7763 0.866324 58.8583L2.52722 59.3705C3.9003 59.7939 4.97521 60.8689 5.39866 62.2419L5.91086 63.9028C5.99282 64.1686 6.36904 64.1686 6.451 63.9028L6.9632 62.2419C7.38664 60.8689 8.46156 59.7939 9.83463 59.3705L11.4955 58.8583C11.7613 58.7763 11.7613 58.4001 11.4955 58.3182L9.83463 57.806C8.46156 57.3825 7.38665 56.3076 6.9632 54.9345L6.451 53.2736C6.36904 53.0078 5.99283 53.0078 5.91086 53.2736ZM50.9549 53.0482L50.5506 54.3592C50.2164 55.443 49.3679 56.2915 48.2841 56.6257L46.9731 57.03C46.7633 57.0947 46.7633 57.3917 46.9731 57.4564L48.2841 57.8607C49.3679 58.1949 50.2164 59.0434 50.5506 60.1272L50.9549 61.4382C51.0196 61.648 51.3166 61.648 51.3813 61.4382L51.7856 60.1272C52.1198 59.0434 52.9683 58.1949 54.0521 57.8607L55.3631 57.4564C55.5729 57.3917 55.5729 57.0947 55.3631 57.03L54.0521 56.6257C52.9683 56.2915 52.1198 55.443 51.7856 54.3592L51.3813 53.0482C51.3166 52.8384 51.0196 52.8384 50.9549 53.0482ZM63.4399 17.2255L62.9762 18.729C62.5929 19.9719 61.6198 20.9449 60.3769 21.3283L58.8734 21.7919C58.6328 21.8661 58.6328 22.2067 58.8734 22.2809L60.3769 22.7445C61.6198 23.1278 62.5929 24.1009 62.9762 25.3438L63.4399 26.8473C63.514 27.0879 63.8546 27.0879 63.9288 26.8473L64.3925 25.3438C64.7758 24.1009 65.7488 23.1278 66.9918 22.7445L68.4952 22.2809C68.7358 22.2067 68.7358 21.8661 68.4952 21.7919L66.9918 21.3283C65.7488 20.9449 64.7758 19.9719 64.3925 18.729L63.9288 17.2255C63.8546 16.9849 63.514 16.9849 63.4399 17.2255ZM8.96518 6.21312L8.49633 7.73344C8.10872 8.9903 7.12478 9.97423 5.86793 10.3618L4.3476 10.8307C4.10432 10.9057 4.10432 11.2501 4.3476 11.3251L5.86793 11.794C7.12478 12.1816 8.10872 13.1655 8.49633 14.4224L8.96518 15.9427C9.0402 16.186 9.38457 16.186 9.45961 15.9427L9.92846 14.4224C10.3161 13.1655 11.3 12.1816 12.5569 11.794L14.0772 11.3251C14.3205 11.2501 14.3205 10.9057 14.0772 10.8307L12.5569 10.3618C11.3 9.97423 10.3161 8.9903 9.92846 7.73344L9.45961 6.21312C9.38457 5.96984 9.0402 5.96984 8.96518 6.21312Z" fill="black"/>
</g>
<defs>
<clipPath id="clip0_25_196">
<rect width="68.0087" height="68.0087" fill="white" transform="translate(0.666992 -0.00390625)"/>
</clipPath>
</defs>
</svg>
