<svg width="34" height="34" viewBox="0 0 34 34" fill="none" xmlns="http://www.w3.org/2000/svg">
<path fill-rule="evenodd" clip-rule="evenodd" d="M4.58544 16.5004C11.4282 13.5681 15.9912 11.635 18.2743 10.7011C24.7929 8.03442 26.1475 7.57116 27.0303 7.55582C27.2245 7.55249 27.6586 7.59983 27.9399 7.82429C28.357 8.15724 28.3594 8.87996 28.3131 9.35828C27.9598 13.0088 26.4314 21.8676 25.6537 25.9562C25.3246 27.6863 24.6768 28.2664 24.0496 28.3231C22.6865 28.4465 21.6514 27.4371 20.3312 26.586C18.2653 25.254 17.0981 24.4249 15.0928 23.1252C12.7753 21.6231 14.2776 20.7976 15.5983 19.4484C15.944 19.0953 21.9499 13.7224 22.0661 13.235C22.0807 13.174 22.0942 12.9468 21.9569 12.8268C21.8197 12.7069 21.6171 12.7478 21.471 12.7805C21.2637 12.8267 17.9634 14.9722 11.57 19.2169C10.6332 19.8496 9.78468 20.1579 9.02447 20.1417C8.18633 20.1239 6.57422 19.6757 5.37573 19.2925C3.90574 18.8225 2.73741 18.574 2.83919 17.7759C2.89219 17.3601 3.47424 16.935 4.58544 16.5004Z" fill="white"/>
</svg>
