<svg width="210" height="139" viewBox="0 0 210 139" fill="none" xmlns="http://www.w3.org/2000/svg">
<path d="M122.214 8.19727C131.875 4.99507 142.372 5.2982 151.827 9.05371C161.283 12.8092 169.081 19.7722 173.827 28.6982C178.497 37.482 179.908 47.6021 177.83 57.3027C186.336 59.5577 193.751 64.7549 198.723 71.9639C203.785 79.3048 205.964 88.2244 204.851 97.0449C203.737 105.865 199.407 113.978 192.676 119.859C185.945 125.74 177.276 128.985 168.299 128.984H167.799V128.983H47.9355C41.9482 128.98 36.0271 127.742 30.5498 125.348C25.0725 122.953 20.1589 119.455 16.123 115.076C12.0873 110.697 9.01797 105.533 7.11035 99.9141C5.20276 94.2947 4.4993 88.3431 5.04492 82.4395C5.59059 76.5358 7.37333 70.8093 10.2793 65.626C13.1852 60.4428 17.1506 55.9162 21.9219 52.335C26.6932 48.7537 32.1662 46.1961 37.9912 44.8252C43.6859 43.485 49.5948 43.3101 55.3584 44.3047C57.0435 40.339 59.4819 36.7287 62.5439 33.6729C65.7008 30.5225 69.4567 28.0224 73.5947 26.3174C77.733 24.6123 82.1721 23.7366 86.6543 23.7393C90.9946 23.7419 95.292 24.5707 99.3154 26.1758C104.587 17.719 112.688 11.3548 122.214 8.19727ZM148.772 17.1836C140.729 13.93 131.734 13.8348 123.622 16.917C115.51 19.9991 108.892 26.0262 105.115 33.7686C104.853 34.3046 104.483 34.7817 104.028 35.1699C103.573 35.5582 103.042 35.8493 102.47 36.0264C101.897 36.2034 101.294 36.2621 100.697 36.1992C100.101 36.1363 99.5226 35.9538 99 35.6611V35.6602C95.6837 33.8064 91.9846 32.7226 88.1826 32.4902C84.3804 32.2579 80.5747 32.8832 77.0527 34.3193C73.5307 35.7555 70.3842 37.9644 67.8516 40.7793C65.3192 43.594 63.4658 46.9411 62.4316 50.5674L62.4326 50.5684C62.1172 51.6757 61.3719 52.6135 60.3623 53.1777C59.353 53.7417 58.1599 53.8876 57.043 53.584C54.0757 52.7802 51.013 52.3739 47.9365 52.376H47.9346C43.4189 52.361 38.9446 53.2288 34.7686 54.9287C30.5925 56.6287 26.7964 59.1277 23.5986 62.2822C20.401 65.4366 17.8637 69.1844 16.1328 73.3105C14.402 77.4368 13.5117 81.8607 13.5117 86.3281C13.5117 90.7956 14.4019 95.2195 16.1328 99.3457C17.8637 103.472 20.401 107.22 23.5986 110.374C26.7964 113.528 30.5925 116.028 34.7686 117.728C38.9446 119.427 43.4189 120.295 47.9346 120.28H168.299C175.434 120.28 182.3 117.587 187.499 112.754C192.698 107.921 195.84 101.309 196.287 94.2656C196.734 87.2222 194.454 80.2739 189.907 74.835C185.361 69.3958 178.889 65.8741 171.811 64.9893V64.9883C171.165 64.9084 170.546 64.6888 169.997 64.3428C169.448 63.9964 168.982 63.5331 168.636 62.9863C168.289 62.4395 168.07 61.8225 167.993 61.1807C167.917 60.5388 167.985 59.8875 168.194 59.2754C170.977 51.1317 170.518 42.2442 166.91 34.4238C163.302 26.6032 156.816 20.4371 148.772 17.1836Z" fill="#11DBFF" stroke="url(#paint0_linear_48_420)"/>
<defs>
<linearGradient id="paint0_linear_48_420" x1="105" y1="6.49805" x2="105" y2="128.484" gradientUnits="userSpaceOnUse">
<stop stop-color="#11DBFF"/>
<stop offset="1" stop-color="#0A8499"/>
</linearGradient>
</defs>
</svg>
