<svg width="202" height="142" viewBox="0 0 202 142" fill="none" xmlns="http://www.w3.org/2000/svg">
<path d="M201.96 78.7077C201.718 73.1134 196.245 68.646 185.66 65.4262C177.449 62.9711 167.025 61.482 155.756 61.2405V18.2969C155.716 17.5724 155.515 16.8882 155.152 16.2845C154.026 11.4146 148.592 7.47041 138.973 4.57262C129.918 1.83582 118.085 0.34668 105.649 0.34668C93.2524 0.34668 81.5406 1.83582 72.646 4.57262C65.3612 6.82646 56.6276 11.0122 56.6276 18.2164C56.6276 18.6591 56.6679 19.1018 56.7484 19.5445L57.1911 37.8972C31.0305 32.9066 5.79558 50.0921 0.845188 76.2124C0.281729 79.1907 0 82.169 0 85.1875C0 111.751 21.6127 133.363 48.1757 133.363C59.2437 133.363 69.9494 129.58 78.522 122.577C86.0482 124.348 94.9026 125.314 104.28 125.394C106.333 136.543 130.481 141.654 152.979 141.654C165.375 141.654 177.087 140.125 185.982 137.348C193.266 135.094 202 130.868 202 123.664V79.4724C202 79.2309 202 78.9492 201.96 78.7077ZM147.344 40.5535C147.344 41.0767 145.413 43.8538 136.679 46.5101C128.509 48.9651 117.199 50.414 105.689 50.414C95.7478 50.414 86.008 49.3676 78.2805 47.3955C78.1598 47.3553 78.0793 47.3553 77.9586 47.315C74.1351 44.2965 69.9091 41.8816 65.3612 40.1913L65.0795 28.8416C67.8565 30.2502 70.7543 31.3772 73.7729 32.1821C82.5065 34.7177 93.8159 36.0861 105.689 36.0861C118.085 36.0861 129.958 34.5969 139.013 31.8601C142.032 30.9747 144.97 29.8075 147.747 28.3586V38.9034C147.304 39.4668 147.344 39.99 147.344 40.5535ZM75.0608 12.3403C83.1907 9.84499 94.0574 8.43634 105.649 8.43634C117.159 8.43634 128.469 9.84499 136.639 12.3403C145.372 14.9966 147.304 17.7334 147.304 18.2566C147.304 18.8201 145.332 21.5971 136.599 24.2132C128.428 26.6683 117.159 28.0769 105.649 28.0769C94.5404 28.0769 83.9956 26.789 75.9865 24.4547C67.3333 21.9594 64.9185 19.2226 64.7173 18.3371C64.7173 18.2566 64.677 18.2566 64.677 18.2566C64.7173 17.4919 66.5686 14.9161 75.0608 12.3403ZM75.1815 114.89C58.801 129.781 33.4051 128.614 18.5136 112.234C3.62224 95.853 4.7894 70.4571 21.17 55.5657C28.5352 48.8444 38.1945 45.1417 48.1757 45.1417C52.2004 45.1417 56.1849 45.7454 60.0486 46.9125C74.0143 51.2592 84.5188 62.8504 87.4971 77.1381C88.0203 79.7944 88.302 82.5312 88.302 85.2277C88.3423 96.5372 83.5529 107.283 75.1815 114.89ZM85.4043 115.775C88.6643 111.791 91.2803 107.323 93.1317 102.534C96.5527 102.816 100.094 103.017 103.797 103.057V103.782L104.039 117.425C97.8004 117.345 91.5621 116.781 85.4043 115.775ZM96.1502 80.4383C98.4846 80.5993 100.94 80.6798 103.435 80.7201L103.676 94.9675C100.859 94.9273 98.0821 94.8065 95.4258 94.6053C96.0295 91.5063 96.3515 88.3268 96.3515 85.1875C96.3515 83.6179 96.271 82.0482 96.1502 80.4383ZM106.051 72.7109C105.93 72.7109 105.769 72.7109 105.649 72.7109C101.785 72.7109 98.0418 72.5499 94.5806 72.3084C93.0512 66.9153 90.6364 61.8442 87.3764 57.3365C93.4134 58.1012 99.4907 58.5037 105.608 58.5037C118.045 58.5037 129.918 57.0145 138.973 54.2777C141.992 53.3923 144.889 52.2251 147.666 50.8165V61.3612C130.4 61.8442 112.652 65.4664 106.051 72.7109ZM111.364 79.1102C111.364 79.0699 111.364 79.0297 111.404 78.9492C111.766 77.8625 114.624 75.2062 122.955 72.8719C130.763 70.6583 140.945 69.4509 151.651 69.4509H152.335C163.846 69.4509 175.115 70.779 183.325 73.2744C191.898 75.8502 193.91 78.5065 193.951 79.1102V79.1504C193.91 79.7541 191.898 82.5312 182.963 85.1875C174.712 87.6426 163.846 88.9707 152.375 88.9707C141.267 88.9707 130.722 87.6828 122.713 85.3887C114.06 82.8934 111.686 80.1164 111.444 79.2712C111.364 79.1102 111.364 79.1102 111.364 79.1102ZM183.647 129.701C175.517 132.236 164.61 133.645 153.019 133.645C141.388 133.645 130.521 132.277 122.472 129.821C113.98 127.205 112.209 124.509 112.209 123.905C112.209 123.865 112.209 123.865 112.209 123.825L112.008 112.153C115.227 113.723 118.568 114.93 122.029 115.816C130.481 118.029 141.227 119.277 152.255 119.277C164.691 119.277 176.483 117.788 185.499 115.051C188.437 114.165 191.254 112.998 193.951 111.63V123.704H193.991C193.991 124.267 192.139 127.044 183.647 129.701ZM194.031 100.079H193.991C193.991 100.481 193.749 100.964 193.749 101.407C193.749 101.971 191.858 104.707 183.164 107.364C174.914 109.859 163.926 111.227 152.295 111.227C129.998 111.227 114.986 106.196 111.847 102.293L111.806 98.9117L111.645 89.6549C114.463 91.0636 117.401 92.1905 120.419 93.0357C129.153 95.5712 140.462 96.9396 152.335 96.9396C164.57 96.9396 176.242 95.4907 185.217 92.8344C188.276 91.9893 191.214 90.8221 194.031 89.3732V100.079Z" fill="#11DBFF"/>
</svg>
