<svg width="168" height="168" viewBox="0 0 168 168" fill="none" xmlns="http://www.w3.org/2000/svg">
<path d="M15.0675 149.94C12.468 149.926 9.97887 148.887 8.14072 147.049C6.30256 145.211 5.26379 142.722 5.25 140.122V59.3771C5.26386 53.9928 7.4089 48.833 11.2162 45.0257C15.0234 41.2185 20.1832 39.0734 25.5675 39.0596H121.38C126.773 39.0596 131.947 41.1985 135.765 45.0072C139.584 48.816 141.736 53.9837 141.75 59.3771V113.19C141.75 118.583 139.611 123.756 135.802 127.575C131.994 131.393 126.826 133.546 121.432 133.56H41.5275C40.62 133.567 39.738 133.861 39.0075 134.4L21 147.997C19.283 149.266 17.2025 149.947 15.0675 149.94ZM25.5675 49.5596C22.968 49.5734 20.4789 50.6121 18.6407 52.4503C16.8026 54.2884 15.7638 56.7776 15.75 59.3771V138.81L32.7075 126C35.259 124.105 38.3493 123.074 41.5275 123.06H121.38C123.998 123.06 126.508 122.02 128.359 120.169C130.21 118.318 131.25 115.807 131.25 113.19V59.3771C131.236 56.7776 130.197 54.2884 128.359 52.4503C126.521 50.6121 124.032 49.5734 121.432 49.5596H25.5675Z" fill="#11DBFF"/>
<path d="M94.1846 92.0322C97.0841 92.0322 99.4346 89.6817 99.4346 86.7822C99.4346 83.8827 97.0841 81.5322 94.1846 81.5322C91.2851 81.5322 88.9346 83.8827 88.9346 86.7822C88.9346 89.6817 91.2851 92.0322 94.1846 92.0322Z" fill="#11DBFF"/>
<path d="M73.8154 92.0322C76.7149 92.0322 79.0654 89.6817 79.0654 86.7822C79.0654 83.8827 76.7149 81.5322 73.8154 81.5322C70.9159 81.5322 68.5654 83.8827 68.5654 86.7822C68.5654 89.6817 70.9159 92.0322 73.8154 92.0322Z" fill="#11DBFF"/>
<path d="M52.8154 92.0322C55.7149 92.0322 58.0654 89.6817 58.0654 86.7822C58.0654 83.8827 55.7149 81.5322 52.8154 81.5322C49.9159 81.5322 47.5654 83.8827 47.5654 86.7822C47.5654 89.6817 49.9159 92.0322 52.8154 92.0322Z" fill="#11DBFF"/>
<path d="M157.5 96.8096C156.108 96.8096 154.772 96.2564 153.788 95.2719C152.803 94.2873 152.25 92.952 152.25 91.5596V38.3771C152.236 35.7776 151.197 33.2884 149.359 31.4503C147.521 29.6121 145.032 28.5734 142.432 28.5596H36.75C35.3576 28.5596 34.0223 28.0064 33.0377 27.0219C32.0531 26.0373 31.5 24.702 31.5 23.3096C31.5 21.9172 32.0531 20.5818 33.0377 19.5973C34.0223 18.6127 35.3576 18.0596 36.75 18.0596H142.432C147.817 18.0734 152.977 20.2185 156.784 24.0257C160.591 27.833 162.736 32.9928 162.75 38.3771V91.5596C162.75 92.952 162.197 94.2873 161.212 95.2719C160.228 96.2564 158.892 96.8096 157.5 96.8096Z" fill="#11DBFF"/>
</svg>
