<svg width="44" height="44" viewBox="0 0 44 44" fill="none" xmlns="http://www.w3.org/2000/svg">
<path d="M37.5408 17.1674C36.8543 17.0692 36.1991 16.8195 35.6241 16.437C35.0491 16.0545 34.569 15.5491 34.2196 14.9584C33.8702 14.3677 33.6605 13.7069 33.6061 13.0252C33.5517 12.3435 33.6541 11.6585 33.9055 11.0212C34.0653 10.6046 34.0888 10.1491 33.9728 9.7186C33.8568 9.28811 33.607 8.90421 33.2584 8.62072C31.7196 7.34702 29.9681 6.34643 28.082 5.66357C27.6525 5.5063 27.1836 5.48665 26.7421 5.60742C26.3006 5.72819 25.909 5.98322 25.6231 6.33618C25.1929 6.8785 24.643 7.31712 24.0152 7.61878C23.3873 7.92044 22.6981 8.07721 21.9996 8.07721C21.3012 8.07721 20.6119 7.92044 19.9841 7.61878C19.3562 7.31712 18.8063 6.8785 18.3761 6.33618C18.0902 5.98322 17.6987 5.72819 17.2572 5.60742C16.8157 5.48665 16.3468 5.5063 15.9173 5.66357C14.1757 6.29402 12.5474 7.19442 11.0937 8.3308C10.7273 8.61673 10.4634 9.01079 10.3406 9.45527C10.2178 9.89975 10.2426 10.3713 10.4114 10.8009C10.6829 11.455 10.795 12.1628 10.7389 12.8674C10.6827 13.572 10.4598 14.2538 10.0881 14.8582C9.71633 15.4625 9.20606 15.9726 8.5982 16.3475C7.99034 16.7223 7.30182 16.9515 6.58786 17.0167C6.12434 17.0655 5.68898 17.2598 5.34587 17.5709C5.00277 17.8819 4.77005 18.2934 4.68198 18.7446C4.46291 19.8135 4.35256 20.9012 4.35256 21.9916C4.35095 22.9046 4.42572 23.8161 4.57609 24.7169C4.65093 25.1825 4.87932 25.611 5.22595 25.9359C5.57258 26.2608 6.01814 26.4641 6.49374 26.5143C7.22338 26.5818 7.926 26.8206 8.5428 27.2107C9.1596 27.6008 9.67263 28.1309 10.0389 28.7565C10.4053 29.3822 10.6142 30.0852 10.6483 30.8068C10.6824 31.5284 10.5407 32.2476 10.2349 32.9041C10.0348 33.3311 9.9852 33.8118 10.0939 34.2698C10.2026 34.7278 10.4634 35.1369 10.8349 35.4322C12.3645 36.6827 14.0991 37.6671 15.9643 38.3429C16.2028 38.4243 16.4531 38.4674 16.7055 38.4705C17.0516 38.4697 17.3924 38.3872 17.6995 38.2298C18.0065 38.0724 18.2708 37.8448 18.4702 37.5659C18.8895 36.9637 19.4516 36.4715 20.1077 36.132C20.7637 35.7925 21.4939 35.616 22.2349 35.6177C22.9528 35.6186 23.6607 35.7847 24.302 36.1028C24.9433 36.4209 25.5005 36.8822 25.929 37.45C26.2141 37.8277 26.6179 38.1019 27.0775 38.2298C27.5371 38.3578 28.0268 38.3323 28.4702 38.1574C30.1757 37.4808 31.7635 36.5456 33.1761 35.3858C33.5309 35.0966 33.7836 34.7039 33.8977 34.2642C34.0119 33.8246 33.9816 33.3605 33.8114 32.9389C33.5347 32.2932 33.414 31.5929 33.4589 30.8933C33.5039 30.1937 33.7131 29.514 34.0703 28.9079C34.4274 28.3017 34.9225 27.7856 35.5167 27.4004C36.1108 27.0152 36.7876 26.7714 37.4937 26.6883C37.9516 26.6259 38.3774 26.4214 38.7095 26.1045C39.0416 25.7876 39.2627 25.3747 39.3408 24.9256C39.5297 23.9583 39.6321 22.9766 39.6467 21.9916C39.6469 20.9528 39.5484 19.9161 39.3525 18.8953C39.2731 18.4562 39.0553 18.0529 38.7301 17.7427C38.4048 17.4325 37.9887 17.2312 37.5408 17.1674ZM27.882 21.9916C27.882 23.1384 27.537 24.2595 26.8906 25.213C26.2442 26.1665 25.3255 26.9097 24.2507 27.3486C23.1758 27.7875 21.9931 27.9023 20.852 27.6786C19.711 27.4548 18.6628 26.9026 17.8402 26.0917C17.0175 25.2808 16.4573 24.2476 16.2303 23.1228C16.0033 21.9981 16.1198 20.8322 16.565 19.7727C17.0102 18.7132 17.7642 17.8076 18.7316 17.1705C19.6989 16.5334 20.8362 16.1933 21.9996 16.1933C23.5597 16.1933 25.0559 16.8042 26.1591 17.8916C27.2622 18.979 27.882 20.4538 27.882 21.9916Z" fill="black"/>
</svg>
