<svg width="44" height="43" viewBox="0 0 44 43" fill="none" xmlns="http://www.w3.org/2000/svg">
<g clip-path="url(#clip0_44_221)">
<path d="M37.8695 7.9088C37.5574 7.9088 37.2582 7.78485 37.0376 7.56422L35.8304 6.35701C35.6097 6.13638 35.4858 5.83714 35.4858 5.52512V3.2355C35.4858 2.17739 34.1979 1.65713 33.4629 2.41834L29.8755 6.13397C29.6881 6.32801 29.5731 6.58053 29.5498 6.84923L29.2016 10.8533C29.1777 11.1291 29.0572 11.3875 28.8615 11.5833L23.3984 17.0463C23.1778 17.2669 22.8786 17.3909 22.5665 17.3909C22.395 17.3909 22.2286 17.3909 22.0003 17.3909C19.6825 17.3909 17.7861 19.2873 17.7861 21.6051C17.7861 23.9229 19.6825 25.8193 22.0003 25.8193C24.3182 25.8193 26.2145 23.9229 26.2145 21.6051C26.2145 21.517 26.2145 21.4382 26.2126 21.3647C26.1994 20.8584 26.2454 20.31 26.6034 19.952L31.8115 14.7439C32.0072 14.5482 32.2657 14.4278 32.5414 14.4038L36.5339 14.0566C36.8097 14.0326 37.0681 13.9122 37.2639 13.7164L41.0631 9.91716C41.8043 9.17603 41.2794 7.9088 40.2312 7.9088H37.8695Z" fill="black"/>
<path d="M33.3785 16.3378H33.1678L30.2178 19.4984C30.4285 20.1306 30.4285 20.9734 30.4285 21.6056C30.4285 26.2412 26.6357 30.0341 22 30.0341C17.3644 30.0341 13.5715 26.2412 13.5715 21.6056C13.5715 16.9699 17.3644 13.1771 22.0001 13.1771C22.8429 13.1771 23.4751 13.3878 24.1072 13.3878L27.2679 10.2271V10.0164C25.5822 9.38427 23.8966 8.96289 22.0001 8.96289C15.0466 8.96289 9.35742 14.6521 9.35742 21.6056C9.35742 28.5591 15.0466 34.2482 22.0001 34.2482C28.9536 34.2482 34.6428 28.559 34.6428 21.6055C34.6428 19.7091 34.2213 18.0234 33.3785 16.3378Z" fill="black"/>
<path d="M42.268 15.7578C41.8449 14.3201 40.0767 13.9918 38.981 15.0144C38.3848 15.5709 38.1442 16.4056 38.3203 17.2019C38.6185 18.5502 38.8577 20.018 38.8577 21.6053C38.8577 30.8767 31.2721 38.4622 22.0008 38.4622C12.7294 38.4622 5.14389 30.8766 5.14389 21.6053C5.14389 12.3341 12.7294 4.74846 22.0008 4.74846C23.4313 4.74846 24.8619 4.9883 26.2925 5.37746C27.1516 5.61116 28.0801 5.38588 28.689 4.73637C29.7529 3.60154 29.3863 1.75882 27.89 1.33344C26.0157 0.8006 24.0527 0.53418 22.0008 0.53418C10.4116 0.53418 0.929688 10.0162 0.929688 21.6053C0.929688 33.1945 10.4116 42.6764 22.0008 42.6764C33.5899 42.6764 43.0719 33.1944 43.0719 21.6053C43.0719 19.5475 42.8039 17.5789 42.268 15.7578Z" fill="black"/>
</g>
<defs>
<clipPath id="clip0_44_221">
<rect width="42.3529" height="42.3529" fill="white" transform="translate(0.823242 0.323242)"/>
</clipPath>
</defs>
</svg>
