<svg width="38" height="38" viewBox="0 0 38 38" fill="none" xmlns="http://www.w3.org/2000/svg">
<g clip-path="url(#clip0_48_393)">
<path d="M12.3323 8.85783L12.6857 7.04397C12.9326 5.77631 14.0431 4.86136 15.3345 4.86136H22.6642C23.9557 4.86136 25.0661 5.77638 25.3131 7.04397L25.6664 8.85783H30.44L29.9122 6.14807C29.2381 2.6875 26.1899 0.175781 22.6643 0.175781H15.3344C11.8089 0.175781 8.76058 2.6875 8.08641 6.14814L7.55859 8.85783H12.3323Z" fill="black"/>
<path d="M32.2223 26.5288H24.2346C23.8532 27.8025 22.671 28.7337 21.2748 28.7337H16.7216C15.3255 28.7337 14.1432 27.8025 13.7618 26.5288H5.77407C3.58094 26.5288 1.5966 25.6189 0.177734 24.1572V32.7672C0.177734 35.5588 2.44073 37.8217 5.23228 37.8217H32.764C35.5555 37.8217 37.8185 35.5588 37.8185 32.7672V24.1572C36.3997 25.6189 34.4154 26.5288 32.2223 26.5288Z" fill="black"/>
<path d="M35.5582 11.0635H2.43815C1.18976 11.0635 0.177734 12.0755 0.177734 13.3239V18.7266C0.177734 21.8174 2.68327 24.3229 5.77407 24.3229H13.6321V23.0012C13.6321 21.2977 15.0181 19.9117 16.7216 19.9117H21.2748C22.9784 19.9117 24.3644 21.2977 24.3644 23.0012V24.3229H32.2224C35.3132 24.3229 37.8187 21.8174 37.8187 18.7266V13.3239C37.8186 12.0755 36.8066 11.0635 35.5582 11.0635Z" fill="black"/>
<path d="M16.7221 26.528C16.2351 26.528 15.8389 26.1318 15.8389 25.6448V23.0014C15.8389 22.5144 16.2351 22.1182 16.7221 22.1182H21.2753C21.7623 22.1182 22.1586 22.5144 22.1586 23.0014V25.6448C22.1586 26.1318 21.7623 26.528 21.2753 26.528H16.7221Z" fill="black"/>
</g>
<defs>
<clipPath id="clip0_48_393">
<rect width="37.6471" height="37.6471" fill="white" transform="translate(0.175781 0.175781)"/>
</clipPath>
</defs>
</svg>
