<svg width="44" height="44" viewBox="0 0 44 44" fill="none" xmlns="http://www.w3.org/2000/svg">
<path d="M40.8398 3.49101C40.8058 3.33797 40.6868 3.21895 40.5423 3.17644C35.5602 1.96068 24.0572 6.29661 17.8253 12.5285C16.7116 13.6337 15.6999 14.8325 14.7987 16.1077C12.8773 15.9377 10.9559 16.0822 9.31501 16.7964C4.69001 18.8283 3.34672 24.142 2.96413 26.4205C2.88762 26.8626 3.18518 27.2877 3.63578 27.3642C3.7123 27.3727 3.78881 27.3812 3.86533 27.3727L11.2874 26.5565C11.2959 27.1176 11.3299 27.6787 11.3895 28.2314C11.4235 28.6139 11.602 28.9795 11.8741 29.2516L14.7477 32.1167C15.0197 32.3888 15.3853 32.5673 15.7679 32.6013C16.3205 32.6608 16.8731 32.6948 17.4343 32.7033L16.6181 40.1169C16.5671 40.5675 16.8986 40.9756 17.3492 41.0181C17.4258 41.0266 17.5023 41.0266 17.5703 41.0096C19.8488 40.644 25.1709 39.3008 27.1944 34.6758C27.9085 33.0349 28.0531 31.122 27.8915 29.2091C29.1753 28.3079 30.3741 27.2877 31.4793 26.1824C37.7281 19.9676 42.0386 8.71964 40.8398 3.49101ZM31.0032 18.7603C29.4134 20.3502 26.8288 20.3587 25.239 18.7603C23.6406 17.1705 23.6406 14.5859 25.239 12.9876C26.8288 11.3892 29.4134 11.3892 31.0117 12.9876C32.6015 14.5859 32.6015 17.1705 31.0032 18.7603Z" fill="black"/>
<path d="M14.5526 34.1917C14.085 34.6593 13.3369 34.8379 12.4357 34.9994C10.4122 35.3395 8.62684 33.5966 8.99242 31.5561C9.12845 30.7825 9.54504 29.6942 9.80009 29.4392C9.94462 29.2947 9.95312 29.0566 9.80859 28.9121C9.72358 28.8271 9.61305 28.7845 9.49403 28.8015C8.36328 28.9376 7.30905 29.4562 6.50988 30.2554C4.50345 32.2618 4.31641 39.6839 4.31641 39.6839C4.31641 39.6839 11.747 39.4969 13.7449 37.4904C14.5526 36.6828 15.0627 35.637 15.1988 34.4978C15.2328 34.1492 14.7992 33.9367 14.5526 34.1917Z" fill="black"/>
</svg>
