<svg width="109" height="109" viewBox="0 0 109 109" fill="none" xmlns="http://www.w3.org/2000/svg">
<g clip-path="url(#clip0_34_29)">
<path d="M19.8789 60.62L39.0523 57.1415M19.8789 60.62C23.3474 79.6786 41.6108 92.3253 60.6713 88.8673M19.8789 60.62C16.4104 41.5614 29.0502 23.3081 48.1107 19.8501M39.0523 57.1415L69.7297 51.5759M39.0523 57.1415C42.5208 76.2001 52.1999 90.4042 60.6713 88.8673M39.0523 57.1415C35.5838 38.0829 39.6394 21.387 48.1107 19.8501M69.7297 51.5759L88.9031 48.0974M69.7297 51.5759C66.2612 32.5173 56.5821 18.3132 48.1107 19.8501M69.7297 51.5759C73.1982 70.6345 69.1426 87.3304 60.6713 88.8673M88.9031 48.0974C85.4346 29.0388 67.1712 16.3921 48.1107 19.8501M88.9031 48.0974C92.3716 67.156 79.7318 85.4093 60.6713 88.8673" stroke="#11DBFF" stroke-width="9.78021" stroke-linecap="round" stroke-linejoin="round"/>
</g>
<defs>
<clipPath id="clip0_34_29">
<rect width="93.5346" height="93.5346" fill="white" transform="matrix(0.983938 -0.178508 0.179051 0.98384 0 16.6963)"/>
</clipPath>
</defs>
</svg>
